<?xml version="1.0" standalone="no"?>
<!DOCTYPE svg PUBLIC "-//W3C//DTD SVG 20010904//EN"
 "http://www.w3.org/TR/2001/REC-SVG-20010904/DTD/svg10.dtd">
<svg version="1.0" xmlns="http://www.w3.org/2000/svg"
 width="1280.000000pt" height="1920.000000pt" viewBox="0 0 1280.000000 1920.000000"
 preserveAspectRatio="xMidYMid meet">

<g transform="translate(0.000000,1920.000000) scale(0.100000,-0.100000)"
fill="#000000" stroke="none">
<path d="M6135 18381 c-178 -53 -312 -142 -400 -266 -64 -89 -141 -256 -172
-372 -24 -88 -27 -115 -26 -268 0 -152 3 -181 26 -270 15 -55 27 -108 27 -118
0 -11 -13 -35 -30 -54 -40 -45 -40 -91 0 -160 32 -56 84 -93 157 -112 40 -11
42 -13 71 -94 48 -131 55 -166 54 -268 -1 -80 2 -103 21 -140 31 -62 81 -91
280 -163 83 -31 86 -76 11 -156 -36 -38 -45 -55 -42 -77 2 -23 8 -29 36 -31
17 -2 32 -6 32 -9 0 -3 -20 -23 -45 -45 -29 -25 -45 -48 -45 -63 0 -32 24 -49
57 -39 38 11 43 11 44 -1 1 -5 -21 -21 -47 -36 -58 -30 -85 -70 -68 -96 9 -13
21 -17 45 -14 72 8 74 7 77 -19 5 -49 -10 -56 -73 -36 -44 14 -59 15 -71 5
-18 -15 -18 -39 2 -67 9 -13 14 -24 13 -26 -2 -1 -36 -7 -76 -14 -136 -22
-243 -91 -300 -191 -52 -91 -69 -98 -142 -56 -101 58 -273 104 -463 125 -185
19 -271 11 -326 -31 -12 -9 -53 -22 -90 -29 -119 -20 -176 -68 -207 -175 -13
-42 -24 -57 -61 -83 -80 -57 -90 -112 -49 -274 77 -301 79 -567 10 -1358 -13
-157 -29 -365 -35 -463 -12 -208 -30 -317 -66 -419 -36 -99 -47 -120 -116
-215 -76 -106 -122 -204 -113 -240 8 -33 18 -21 33 42 8 32 38 87 83 153 150
219 185 345 209 747 6 99 22 306 35 460 35 392 45 572 45 780 0 210 -10 302
-50 476 -35 146 -37 191 -12 238 29 59 63 76 145 75 151 -1 255 -85 273 -222
9 -68 0 -95 -45 -145 -81 -91 -93 -118 -122 -292 -38 -234 -72 -1466 -58
-2160 5 -237 1 -253 -66 -281 -30 -12 -43 -12 -97 1 -35 8 -84 15 -109 15 -25
0 -88 13 -141 28 l-95 29 -11 -86 c-6 -47 -11 -126 -10 -176 1 -84 -3 -100
-52 -240 -84 -240 -134 -398 -246 -765 -128 -422 -207 -655 -291 -865 -73
-180 -80 -227 -44 -276 13 -17 19 -34 15 -38 -5 -4 -64 -50 -132 -101 -208
-157 -338 -281 -467 -445 -21 -27 -69 -87 -107 -131 -37 -45 -68 -91 -68 -102
0 -23 25 -52 44 -52 20 0 119 92 255 235 67 71 221 206 247 215 l27 11 -6 -78
c-5 -74 -42 -200 -72 -248 -31 -48 -67 -154 -80 -233 -9 -54 -22 -97 -38 -121
-17 -26 -26 -57 -31 -110 -3 -40 -18 -108 -32 -149 -34 -102 -55 -197 -48
-215 7 -19 29 -28 48 -21 8 3 20 28 25 56 6 28 25 81 41 118 16 37 35 91 41
120 7 31 23 65 40 85 20 22 29 43 29 67 0 55 23 119 78 214 50 90 70 143 91
244 6 30 22 73 35 94 l23 39 7 -37 c10 -50 -1 -100 -37 -176 -29 -61 -31 -72
-37 -230 -6 -135 -11 -174 -28 -215 -14 -33 -22 -81 -26 -140 -2 -49 -9 -148
-15 -218 -12 -137 -7 -167 29 -167 25 0 36 22 44 90 24 215 38 285 61 329 22
39 26 61 28 151 2 90 6 112 29 155 38 74 58 150 59 229 1 39 5 85 10 101 5 20
7 -1 5 -60 -2 -54 5 -150 17 -242 21 -148 21 -153 3 -225 -15 -61 -16 -84 -7
-138 6 -36 11 -128 11 -206 0 -95 4 -144 12 -152 13 -13 54 -16 61 -4 7 10 25
205 33 346 l7 119 -24 -17 c-28 -19 -40 -20 -63 -3 -18 13 -18 16 -1 67 13 40
16 67 10 114 -16 132 -16 129 39 139 27 4 50 6 52 4 2 -2 -2 -22 -10 -43 -7
-22 -17 -59 -21 -83 -8 -48 2 -154 14 -146 4 2 11 46 14 97 3 51 13 113 22
137 19 55 19 105 0 204 -16 85 -18 150 -6 182 7 18 9 18 25 -6 38 -58 67 -216
81 -444 19 -289 32 -416 43 -427 5 -5 20 -8 33 -6 l24 3 8 270 c4 149 6 316 5
371 -3 99 -4 103 -41 157 -27 39 -40 72 -48 116 -12 77 -21 101 -48 125 -26
24 -27 36 -1 36 11 0 34 13 51 28 25 23 33 38 36 79 5 50 5 50 -46 94 -61 53
-65 77 -17 114 40 30 43 37 150 336 138 384 186 548 291 987 79 334 135 505
221 676 82 162 103 246 80 317 -9 26 -16 50 -16 53 0 3 18 15 40 26 77 39 82
76 65 497 -5 135 -4 335 4 555 6 189 16 541 21 783 10 440 21 580 56 720 28
114 42 132 94 125 30 -4 72 -57 115 -145 24 -49 68 -122 98 -161 30 -39 63
-86 73 -105 26 -50 22 -113 -14 -190 -37 -80 -55 -145 -83 -314 -21 -128 -21
-130 -3 -222 16 -81 16 -99 4 -155 -7 -35 -15 -87 -17 -115 -5 -58 19 -313 43
-462 9 -51 14 -107 11 -124 -12 -85 56 -482 94 -543 48 -79 145 -93 263 -38
53 24 63 26 93 15 47 -17 69 3 83 78 25 127 20 119 177 263 259 237 285 257
376 304 49 24 93 41 98 38 15 -9 10 -88 -7 -113 -15 -20 -23 -23 -61 -18 -25
3 -61 1 -80 -5 -62 -17 -66 -91 -5 -103 15 -3 50 -11 77 -18 l50 -12 6 -64 c8
-81 -1 -117 -27 -113 -71 11 -133 6 -153 -12 -24 -22 -27 -48 -6 -66 8 -6 46
-27 85 -46 50 -24 73 -41 80 -59 14 -37 13 -172 -2 -181 -6 -4 -45 -9 -86 -11
-81 -3 -102 -13 -102 -48 0 -29 13 -38 80 -60 102 -32 100 -29 100 -160 0
-134 -6 -146 -76 -143 -35 2 -49 -2 -60 -17 -31 -43 -12 -84 50 -105 40 -13
66 -59 66 -117 0 -54 -9 -63 -60 -60 -39 2 -46 -1 -58 -25 -18 -39 4 -81 69
-133 48 -38 51 -42 46 -78 -3 -21 -7 -41 -10 -43 -6 -6 -129 41 -161 61 -14
10 -36 33 -48 54 -48 79 -103 143 -144 167 -28 16 -80 31 -155 44 -63 11 -143
29 -177 40 -78 25 -181 26 -252 3 -108 -35 -210 -168 -210 -274 0 -64 21 -108
86 -181 113 -127 153 -241 162 -470 6 -142 9 -159 30 -185 77 -97 69 -131 -56
-230 -40 -32 -44 -41 -57 -131 -4 -23 -13 -48 -20 -56 -9 -8 -50 -15 -114 -19
-110 -6 -162 -24 -193 -67 -50 -71 -70 -305 -34 -410 16 -45 36 -71 110 -145
179 -177 246 -367 301 -859 44 -383 164 -1174 222 -1456 28 -139 36 -206 40
-327 6 -181 -9 -269 -65 -371 -35 -63 -37 -72 -36 -157 0 -123 18 -174 99
-281 7 -9 2 -21 -17 -41 -56 -61 -61 -99 -23 -199 14 -36 25 -74 25 -83 0 -10
20 -39 44 -65 55 -61 102 -156 121 -247 9 -39 20 -167 25 -283 10 -216 24
-371 59 -671 11 -93 36 -321 56 -505 61 -570 133 -1127 175 -1340 27 -142 26
-174 -10 -235 -33 -56 -39 -114 -15 -155 20 -35 18 -87 -4 -137 -25 -54 -56
-72 -71 -42 -14 26 -15 72 -2 212 7 68 7 154 2 230 -15 208 -77 734 -135 1146
-62 444 -84 641 -120 1086 -45 547 -58 637 -120 794 -37 97 -40 115 -25 155
11 30 0 34 -23 8 -24 -27 -21 -59 13 -143 68 -164 79 -231 125 -779 40 -478
60 -664 115 -1060 67 -487 79 -578 105 -815 41 -368 48 -502 34 -647 -13 -149
-8 -187 32 -232 34 -39 31 -59 -11 -76 -16 -7 -51 -35 -77 -64 -69 -75 -167
-160 -254 -222 -58 -41 -85 -68 -112 -113 l-36 -60 21 -26 c30 -39 117 -85
159 -85 22 0 61 12 94 30 32 17 59 29 61 27 2 -2 0 -17 -5 -33 -5 -16 -4 -40
1 -53 20 -54 72 -65 140 -30 23 12 67 30 98 41 30 10 72 30 92 43 21 14 58 31
84 37 29 8 56 24 71 42 21 25 35 31 85 37 64 7 98 26 132 73 20 25 21 45 26
276 5 264 11 293 48 257 15 -16 18 -47 22 -265 4 -215 7 -252 23 -275 24 -37
87 -67 141 -67 38 0 48 -4 66 -30 14 -20 37 -34 71 -44 28 -9 74 -29 102 -45
69 -39 228 -101 259 -101 13 0 35 11 48 25 23 24 24 58 4 108 -5 15 5 12 46
-14 37 -23 69 -34 106 -37 47 -4 59 -1 105 28 73 47 84 68 64 116 -21 52 -35
65 -145 148 -52 39 -140 114 -195 166 -55 53 -112 104 -127 113 -16 10 -28 22
-28 27 0 5 14 29 31 54 36 51 37 56 24 286 -6 117 -3 188 14 370 24 243 64
572 111 905 72 513 107 836 140 1290 28 385 54 533 117 675 37 85 35 110 -21
185 -6 8 0 42 18 95 32 97 29 126 -20 180 l-34 38 25 30 c14 17 40 61 58 99
28 59 32 78 32 148 -1 69 -6 91 -38 167 -57 134 -71 203 -70 358 0 113 5 159
32 285 50 236 168 1011 241 1580 35 274 52 368 84 463 49 144 133 274 232 359
77 67 97 113 102 242 3 75 -1 126 -12 174 -32 138 -72 176 -183 178 -88 1
-164 14 -174 30 -5 8 -9 33 -9 57 0 69 -37 120 -121 170 -65 39 -76 101 -29
155 43 50 50 77 50 202 0 63 7 147 15 187 20 97 81 218 150 296 71 81 85 110
85 170 0 106 -71 217 -174 269 -79 41 -189 44 -301 9 -48 -15 -122 -31 -167
-36 -127 -15 -203 -63 -270 -171 -53 -87 -131 -139 -210 -139 -22 0 -29 6 -34
27 -6 23 -2 31 27 52 105 79 129 124 90 172 -17 22 -22 23 -60 13 -23 -6 -43
-9 -45 -5 -2 3 -7 32 -11 64 -9 69 3 87 78 119 56 24 71 46 58 81 -11 29 -69
52 -105 43 -45 -11 -55 10 -57 126 -2 72 1 112 10 121 10 13 47 30 154 69 24
9 28 16 25 42 -4 45 -36 58 -127 50 -82 -7 -96 1 -79 45 5 14 6 52 3 83 -6 53
-5 60 18 80 14 12 58 36 99 53 67 28 73 33 76 62 5 50 -28 59 -173 50 -45 -2
-42 -12 -32 112 4 54 30 77 95 87 86 12 116 50 72 94 -16 16 -33 20 -92 20
-40 0 -79 4 -85 8 -9 6 -11 24 -6 60 7 61 3 61 119 6 101 -48 168 -100 356
-278 179 -169 208 -211 208 -299 0 -65 46 -96 100 -67 13 7 29 5 53 -5 65 -27
126 -36 166 -25 111 29 142 111 176 450 9 91 25 221 37 290 14 85 18 146 14
190 -4 43 -1 84 9 120 21 79 19 175 -6 254 -21 68 -21 69 -3 130 27 86 24 213
-4 284 -12 29 -22 72 -22 96 0 50 -21 124 -55 198 -49 104 -32 182 63 298 25
30 67 101 94 156 51 107 66 126 109 143 57 21 90 -46 124 -249 22 -134 46
-960 50 -1730 2 -344 4 -631 4 -637 1 -7 18 -24 40 -38 51 -34 61 -60 61 -159
0 -100 6 -118 109 -327 89 -182 88 -181 201 -639 91 -372 190 -707 292 -989
81 -225 108 -284 143 -307 44 -29 42 -52 -8 -99 -50 -46 -63 -77 -53 -130 8
-40 44 -72 92 -81 l35 -6 -39 -34 c-34 -29 -40 -40 -45 -88 -4 -38 -21 -84
-58 -155 l-52 -101 8 -83 c4 -45 10 -201 14 -347 6 -255 7 -265 26 -268 36 -4
45 12 51 99 3 46 7 86 9 89 2 3 9 89 15 190 17 292 49 468 92 507 20 18 20 18
14 -97 -3 -63 -9 -137 -12 -163 -4 -34 1 -78 16 -145 18 -76 21 -114 17 -178
-4 -57 -1 -96 9 -129 9 -30 14 -96 15 -174 1 -163 15 -235 47 -239 42 -6 52
13 51 101 0 45 5 133 12 197 10 100 10 125 -5 194 -9 43 -16 95 -16 115 0 47
30 213 40 225 10 10 50 -66 74 -140 9 -28 20 -100 24 -161 6 -79 14 -122 30
-153 14 -28 28 -98 44 -208 25 -181 37 -208 78 -182 17 11 17 111 -1 243 -6
44 -11 118 -13 165 -2 66 -8 97 -24 129 -19 37 -21 56 -20 175 2 131 1 135
-36 232 -31 84 -36 109 -34 165 3 62 4 64 17 42 7 -14 20 -56 28 -95 9 -46 36
-114 74 -190 64 -126 109 -247 109 -292 0 -15 13 -48 28 -73 34 -56 51 -98 97
-240 36 -112 51 -136 78 -125 24 9 27 30 12 74 -8 22 -28 105 -45 184 -17 79
-46 189 -65 243 -19 54 -35 117 -35 140 0 28 -12 68 -35 115 -78 163 -107 243
-118 325 -6 46 -8 85 -5 89 17 16 113 -64 308 -256 200 -198 209 -205 244
-188 37 16 35 56 -5 94 -17 16 -91 103 -165 194 -141 176 -337 370 -399 396
-20 8 -50 31 -67 50 -17 19 -50 46 -74 60 -24 14 -44 28 -44 30 0 2 9 18 20
36 35 58 27 104 -44 261 -72 160 -82 189 -132 366 -57 201 -114 382 -296 934
l-170 518 7 93 c6 82 5 98 -15 143 l-21 50 22 37 c35 60 11 129 -110 314 -136
206 -147 249 -176 672 -9 124 -24 322 -35 440 -37 415 -53 718 -47 890 8 194
16 258 58 443 39 171 35 193 -46 264 -38 32 -55 54 -55 70 0 32 -26 93 -52
120 -26 28 -206 99 -302 120 -53 11 -102 13 -196 9 -199 -11 -376 -54 -522
-127 -90 -45 -112 -38 -166 52 -57 94 -191 177 -305 186 -85 8 -93 13 -67 45
23 31 26 61 6 77 -11 10 -25 9 -62 -4 -60 -20 -76 -14 -72 27 3 30 5 33 33 29
72 -10 80 -8 83 23 4 34 -23 66 -79 91 -38 18 -58 55 -21 40 47 -18 70 -17 81
3 17 33 14 40 -41 93 l-51 49 31 0 c21 0 35 7 42 20 13 24 1 50 -43 98 -36 37
-42 89 -13 120 9 11 59 34 109 52 208 72 246 122 247 325 0 169 43 266 156
355 35 27 71 62 81 77 27 41 23 119 -8 173 l-26 42 25 97 c22 83 25 118 25
261 0 176 -10 242 -59 388 -77 232 -251 433 -443 513 -111 46 -187 59 -351 58
-127 -1 -156 -4 -235 -28z m475 -21 c197 -56 371 -193 444 -350 25 -55 30 -80
34 -166 3 -65 -2 -138 -12 -203 -40 -251 -7 -503 74 -576 27 -24 50 -75 50
-111 0 -37 -36 -98 -70 -117 -38 -23 -48 -21 -42 8 7 39 -6 75 -33 87 -21 9
-31 6 -77 -25 -29 -20 -78 -45 -109 -57 -98 -36 -127 -80 -97 -146 11 -23 10
-28 -12 -46 -14 -11 -30 -16 -39 -12 -9 4 -57 10 -108 14 -60 5 -101 13 -118
24 -41 27 -48 8 -11 -28 55 -52 60 -105 12 -127 -43 -20 -56 -6 -56 59 0 52
-3 62 -30 87 -28 27 -31 28 -49 11 -20 -18 -105 -37 -163 -36 -21 0 -47 -4
-58 -10 -19 -10 -19 -11 0 -30 21 -21 27 -65 10 -75 -18 -11 -40 16 -40 50 0
30 -3 33 -35 39 -38 8 -38 8 -35 81 2 65 -18 91 -86 109 -39 10 -61 25 -99 65
-38 41 -54 51 -80 51 -45 0 -58 -20 -53 -81 l3 -51 -33 6 c-65 10 -121 69
-136 142 -6 27 -1 38 34 79 70 81 89 133 111 310 13 104 6 254 -16 335 -39
140 -27 279 32 380 91 156 295 285 518 329 81 16 288 6 375 -19z m-958 -631
c15 -82 21 -159 22 -274 1 -159 -7 -216 -44 -310 l-12 -30 -10 25 c-44 115
-58 413 -26 555 25 108 39 157 44 152 3 -2 14 -56 26 -118z m1507 37 c54 -176
53 -486 -3 -619 l-13 -32 -16 38 c-49 114 -58 268 -27 472 11 72 20 149 20
173 0 58 15 46 39 -32z m-1326 -896 c24 -28 87 -175 87 -203 0 -7 16 -39 35
-71 25 -42 35 -70 35 -100 0 -61 20 -83 88 -96 31 -6 78 -16 105 -21 36 -8 51
-8 62 1 13 10 19 9 35 -5 19 -17 21 -17 39 -1 17 16 20 16 51 -1 19 -11 34
-14 36 -8 15 36 23 40 39 18 19 -27 47 -30 65 -8 12 14 15 14 32 -2 17 -15 20
-15 34 -1 12 12 23 13 53 5 30 -8 54 -6 121 11 108 28 124 42 117 105 -4 26
-1 60 4 75 6 15 21 76 35 136 22 102 51 162 88 188 21 14 55 8 66 -12 8 -15 1
-41 -35 -126 -69 -160 -86 -232 -89 -361 -2 -84 -7 -118 -19 -137 -23 -35 -92
-73 -212 -116 -56 -21 -132 -54 -168 -74 -39 -22 -85 -39 -115 -43 -46 -5 -60
-1 -159 45 -59 28 -146 65 -193 82 -175 64 -200 95 -200 246 0 109 -23 203
-85 349 -49 113 -51 125 -33 143 21 21 55 13 81 -18z m1060 -70 c-1 -8 -6 -40
-12 -70 -6 -30 -13 -72 -16 -93 -5 -34 -8 -37 -22 -25 -26 21 -53 90 -53 136
0 39 3 44 33 57 39 18 73 15 70 -5z m-901 -27 c14 -12 18 -30 17 -77 -1 -34
-4 -74 -8 -91 l-6 -30 -21 30 c-23 32 -66 170 -56 179 11 12 56 5 74 -11z
m402 -115 c10 -14 16 -44 16 -76 0 -59 -14 -72 -56 -54 -29 14 -33 62 -10 117
17 41 29 44 50 13z m194 -20 c15 -15 16 -74 2 -83 -18 -11 -40 16 -40 50 0 44
14 57 38 33z m66 6 c18 -7 21 -51 6 -74 -9 -13 -12 -12 -25 4 -16 21 -20 58
-8 69 8 8 8 8 27 1z m-426 -39 c3 -42 -11 -63 -32 -46 -16 14 -22 62 -9 75 16
15 38 0 41 -29z m70 -7 c-2 -35 -7 -43 -23 -43 -22 0 -30 24 -21 61 4 15 14
24 27 24 18 0 20 -5 17 -42z m438 5 c8 -29 -6 -58 -27 -58 -18 0 -24 52 -8 71
17 21 28 17 35 -13z m2 -117 c4 -31 -22 -76 -43 -76 -11 0 -15 11 -15 39 0 65
51 97 58 37z m-570 12 c16 -16 16 -88 0 -88 -22 0 -36 14 -43 43 -12 48 13 75
43 45z m492 -30 c0 -5 -7 -23 -17 -41 l-16 -32 -13 30 c-17 40 -17 51 3 70 16
16 17 16 30 -1 7 -10 13 -22 13 -26z m-407 18 c7 -17 -13 -86 -24 -86 -11 0
-32 69 -25 85 7 19 42 19 49 1z m73 -11 c6 -26 -12 -85 -26 -85 -19 0 -26 80
-8 98 18 18 27 15 34 -13z m80 10 c8 -21 -5 -85 -17 -85 -16 0 -32 47 -25 74
7 28 33 35 42 11z m162 3 c16 -16 15 -60 -2 -84 -18 -24 -25 -17 -33 29 -9 57
8 82 35 55z m-63 -8 c7 -12 -12 -87 -25 -95 -11 -7 -34 71 -26 91 6 16 42 19
51 4z m-204 -460 c57 -25 134 -25 201 0 62 23 68 19 68 -57 0 -63 -20 -89 -77
-98 -21 -3 -47 -8 -58 -10 -31 -7 -199 17 -207 29 -20 28 -2 156 21 156 5 0
28 -9 52 -20z m264 -214 c3 -17 2 -53 -3 -81 -10 -66 -30 -75 -164 -77 -118
-1 -157 12 -178 62 -11 26 -8 98 5 119 2 4 78 7 169 7 l166 0 5 -30z m-368
-43 c7 -18 -38 -63 -63 -63 -23 0 -16 37 12 59 32 25 43 26 51 4z m457 -25
c21 -30 5 -46 -29 -28 -26 14 -41 43 -30 60 8 13 39 -3 59 -32z m-249 -120
c39 2 88 4 110 5 l40 2 1 -60 c1 -35 -4 -69 -11 -81 -28 -45 -221 -62 -281
-25 -43 26 -59 75 -44 131 l11 42 52 -9 c29 -4 84 -7 122 -5z m-208 -14 c8
-22 -15 -40 -59 -48 -47 -8 -52 12 -12 43 32 25 62 27 71 5z m462 -10 c42 -35
40 -48 -6 -39 -46 8 -63 21 -63 46 0 27 33 24 69 -7z m-475 -173 c18 -15 22
-56 6 -66 -21 -13 -129 73 -116 93 7 11 87 -8 110 -27z m526 21 c0 -25 -83
-87 -105 -78 -8 3 -15 17 -15 31 0 19 8 29 33 39 36 16 87 20 87 8z m-146 -28
c9 -24 7 -68 -4 -101 -19 -53 -99 -73 -220 -54 -105 17 -120 28 -120 96 0 29
5 57 11 60 6 4 45 2 87 -4 63 -10 87 -9 132 2 75 20 107 20 114 1z m-419 -77
c24 -14 41 -31 43 -44 3 -22 2 -22 -97 -16 -82 5 -109 3 -146 -11 -61 -24
-128 -91 -150 -152 -26 -71 -35 -79 -79 -64 -41 13 -45 30 -21 85 40 97 183
195 311 214 89 13 96 12 139 -12z m760 -41 c144 -71 209 -163 210 -296 0 -63
-5 -85 -29 -133 -51 -104 -186 -188 -308 -191 -67 -1 -85 12 -98 69 -15 68 8
84 145 100 79 9 129 30 161 68 23 28 26 37 22 96 -2 37 -13 84 -23 106 -26 54
-88 113 -143 137 -45 20 -87 21 -217 5 -31 -3 -33 46 -3 68 19 14 40 16 116
12 82 -4 101 -9 167 -41z m-756 -47 c42 -15 51 -35 51 -118 0 -82 13 -73 -145
-91 -55 -7 -122 -10 -150 -8 l-50 3 60 18 c84 26 105 41 105 77 0 33 -25 54
-78 65 -41 8 -33 19 34 45 55 22 126 25 173 9z m226 -16 c55 -3 116 -1 135 4
19 6 41 8 48 6 19 -7 14 -74 -7 -110 -22 -36 -81 -53 -182 -53 -80 0 -126 20
-144 63 -21 51 1 115 34 101 9 -3 61 -9 116 -11z m461 -8 c41 -17 44 -32 7
-41 -100 -23 -97 -107 4 -134 115 -31 48 -39 -135 -17 -56 7 -106 17 -112 23
-5 5 -10 40 -12 77 -2 76 0 79 72 104 41 15 127 9 176 -12z m-1591 -25 c138
-29 201 -52 340 -121 156 -77 217 -87 430 -70 83 7 159 9 169 5 19 -7 36 -43
36 -74 0 -14 -13 -23 -50 -34 -47 -14 -54 -14 -133 10 -73 22 -93 24 -187 19
-123 -8 -147 -1 -275 74 -156 93 -308 143 -478 161 -116 12 -178 4 -251 -32
-36 -17 -51 -20 -64 -12 -39 25 -17 77 41 96 43 14 318 0 422 -22z m2769 -3
c20 -14 26 -25 24 -44 -5 -42 -30 -50 -80 -26 -103 51 -163 54 -349 17 -137
-26 -229 -56 -289 -93 -19 -11 -45 -21 -56 -21 -25 0 -49 24 -39 40 22 35 206
98 385 130 141 26 362 24 404 -3z m-3292 -86 c8 -55 36 -104 68 -121 16 -9 27
-4 58 25 22 19 47 35 57 35 9 0 84 -35 166 -77 146 -75 152 -77 217 -76 37 1
76 3 87 5 51 8 14 -109 -69 -218 -60 -81 -86 -138 -86 -197 0 -55 -10 -77 -56
-129 -36 -40 -74 -109 -94 -172 l-13 -40 -34 40 c-58 67 -94 123 -120 187 -16
40 -42 80 -74 112 -27 28 -49 54 -49 59 0 4 10 22 22 39 22 31 29 67 44 219 6
61 5 68 -18 91 -18 18 -40 26 -84 31 -32 4 -92 16 -133 27 -41 10 -85 19 -98
19 -77 0 0 141 101 186 17 7 47 13 66 11 34 -2 35 -3 42 -56z m1249 49 c25
-14 25 -46 0 -60 -25 -13 -152 -42 -158 -37 -9 10 26 75 48 91 27 18 81 21
110 6z m2224 -21 c23 -11 52 -31 65 -44 24 -25 50 -92 44 -110 -4 -10 -78 -27
-257 -60 -77 -14 -117 -43 -117 -84 0 -23 9 -79 31 -198 6 -28 20 -64 31 -79
l21 -26 -42 -36 c-32 -26 -55 -61 -91 -136 -43 -89 -128 -206 -149 -206 -4 0
-14 19 -22 42 -12 38 -49 98 -114 187 -19 26 -25 47 -25 85 0 63 -22 111 -87
197 -53 69 -113 213 -97 229 5 5 27 5 54 -1 73 -17 125 -3 284 78 161 81 179
84 209 33 11 -18 26 -30 39 -30 32 0 75 54 88 112 19 83 41 91 135 47z m-1254
-9 c40 -40 37 -76 -5 -72 -59 7 -131 36 -135 56 -5 27 25 46 72 46 30 0 45 -7
68 -30z m-1695 -10 c71 -18 239 -82 253 -96 13 -13 -75 -75 -128 -91 -91 -26
-138 -15 -304 71 -80 42 -156 76 -168 76 -12 0 -36 -16 -54 -35 -36 -40 -52
-39 -78 5 -18 29 -17 29 10 43 25 13 122 39 193 51 48 9 200 -5 276 -24z
m2707 -17 c70 -33 78 -45 50 -75 -23 -25 -36 -23 -56 12 -10 16 -28 32 -41 36
-29 7 -124 -31 -226 -91 -97 -57 -165 -72 -257 -57 -69 12 -116 37 -121 65
-11 55 320 149 503 144 66 -2 92 -8 148 -34z m-1613 -50 c25 -3 83 0 129 7 96
14 103 10 90 -49 -11 -50 -46 -77 -111 -85 -60 -8 -172 7 -193 24 -20 17 -38
76 -30 101 6 18 12 20 38 14 18 -3 52 -9 77 -12z m931 -81 c75 -69 110 -141
117 -238 4 -57 1 -77 -16 -110 -24 -46 -79 -101 -141 -139 -100 -62 -388 -137
-583 -151 -95 -7 -97 -6 -123 20 -15 15 -25 32 -22 39 2 8 39 15 103 20 142
10 247 32 381 78 199 69 274 119 289 197 10 51 -4 98 -52 169 -70 104 -80 130
-75 191 2 19 53 -12 122 -76z m-491 27 c36 -4 96 -8 133 -9 68 0 68 0 65 -26
-3 -23 -8 -26 -53 -29 -27 -2 -88 -13 -134 -25 -81 -21 -156 -23 -205 -4 -19
7 -21 46 -5 77 22 42 15 41 199 16z m-1186 -32 l29 -23 -35 -45 c-50 -66 -81
-145 -75 -190 11 -81 64 -123 241 -190 152 -57 248 -78 397 -89 71 -5 137 -14
146 -19 15 -8 13 -13 -14 -40 -27 -27 -38 -31 -85 -31 -172 1 -479 74 -628
150 -64 33 -137 105 -156 156 -32 83 3 238 70 309 39 41 69 44 110 12z m2765
-52 c70 -36 80 -115 38 -290 -14 -60 -32 -144 -39 -185 -19 -114 -14 -482 11
-810 12 -157 33 -436 46 -620 14 -184 30 -366 36 -405 25 -169 69 -281 159
-404 63 -87 112 -184 118 -236 4 -36 1 -45 -22 -63 -38 -29 -191 -83 -256 -89
-77 -7 -165 13 -201 45 -46 41 -51 114 -33 412 13 202 14 282 4 455 -6 116
-15 424 -20 685 -10 549 -22 764 -51 904 -24 118 -45 171 -92 229 -51 62 -67
100 -67 157 0 92 39 153 122 196 90 46 182 53 247 19z m-2494 -34 c66 -16 147
-33 180 -37 l60 -9 0 -52 c-1 -37 -6 -58 -20 -73 -46 -51 -229 -2 -319 86 -37
36 -76 91 -76 107 0 14 55 7 175 -22z m140 14 c29 -14 27 -15 -35 -9 -77 6
-106 24 -39 24 24 -1 58 -7 74 -15z m517 -5 c77 -22 128 -89 128 -169 0 -32
-5 -44 -26 -58 -61 -42 -96 -82 -127 -143 l-32 -65 -64 2 c-35 1 -68 6 -74 12
-5 5 -21 33 -36 62 -17 35 -42 65 -71 85 -80 58 -90 70 -90 111 0 51 30 97 87
134 45 29 52 30 123 26 41 -3 86 -1 100 3 35 11 40 11 82 0z m373 0 c-8 -13
-64 -22 -106 -18 l-34 4 35 11 c44 14 113 16 105 3z m-2097 -17 c22 -19 25
-31 23 -73 -2 -24 -3 -23 -25 12 -12 21 -31 47 -41 58 -18 19 -18 20 2 20 12
0 30 -8 41 -17z m3232 14 c0 -2 -13 -28 -29 -57 -28 -52 -30 -53 -36 -28 -10
39 -3 61 25 75 25 13 40 16 40 10z m-2364 -25 c13 -8 37 -52 32 -57 -3 -4
-138 -55 -144 -55 -2 0 -4 8 -4 18 0 25 27 61 64 83 35 21 37 22 52 11z m1515
-25 c35 -23 76 -90 59 -95 -15 -5 -150 51 -150 63 0 13 37 55 49 55 4 0 23
-10 42 -23z m-1426 -89 c14 -6 25 -14 25 -17 -1 -10 -208 -73 -219 -66 -29 17
-2 63 49 84 35 14 114 13 145 -1z m1428 -12 c18 -7 41 -23 51 -35 18 -20 18
-23 4 -38 -15 -14 -25 -13 -122 18 -58 19 -106 38 -106 42 -1 26 121 35 173
13z m-1809 -52 c12 -32 5 -66 -30 -131 -40 -77 -40 -108 2 -179 45 -79 180
-170 314 -213 162 -51 390 -67 516 -35 56 14 68 14 75 3 29 -46 -9 -89 -100
-115 -58 -18 -176 -15 -326 7 -264 39 -472 148 -550 291 -26 46 -30 63 -30
133 0 68 4 88 28 135 32 62 74 120 86 120 5 0 12 -7 15 -16z m532 -5 c58 -15
94 -19 135 -15 47 6 60 3 80 -13 13 -11 21 -22 17 -26 -3 -4 -40 -1 -82 5 -87
13 -192 2 -297 -32 -71 -23 -102 -20 -140 11 l-23 19 42 21 c44 23 133 49 168
50 11 1 56 -8 100 -20z m1593 -83 c33 -53 54 -143 46 -194 -13 -88 -62 -163
-150 -229 -118 -90 -231 -130 -464 -164 -175 -25 -270 -22 -339 13 -55 27 -67
45 -58 83 6 23 11 26 34 21 148 -33 351 -31 486 4 165 42 354 159 395 243 29
60 27 103 -10 175 -27 52 -31 67 -25 107 l7 46 30 -37 c16 -20 38 -51 48 -68z
m-449 80 c30 -8 78 -24 105 -36 l50 -21 -40 -25 c-50 -30 -61 -30 -159 2 -108
34 -210 41 -310 20 -44 -9 -81 -14 -84 -12 -8 9 8 24 44 41 30 14 42 15 85 5
50 -12 59 -11 204 35 22 7 53 4 105 -9z m-928 -81 c114 -24 126 -31 159 -97
l30 -59 -28 7 c-16 4 -41 19 -58 34 -16 15 -40 33 -52 39 -29 15 -104 14 -183
-3 -36 -8 -68 -12 -72 -9 -11 6 -10 47 2 77 9 24 14 26 69 26 33 0 93 -7 133
-15z m-237 -5 c9 -15 -5 -71 -19 -76 -18 -7 -127 36 -121 47 7 10 90 37 117
38 9 1 20 -4 23 -9z m975 -12 c14 -15 20 -33 18 -53 -3 -33 5 -32 -118 -13
-99 15 -139 6 -196 -42 -25 -22 -54 -40 -64 -40 -17 0 -18 3 -9 27 30 79 88
119 192 132 117 16 154 13 177 -11z m125 -4 c36 -9 65 -20 65 -24 0 -8 -101
-50 -120 -50 -14 0 -30 35 -30 64 0 31 2 31 85 10z m-1520 -48 c19 -8 35 -22
35 -30 0 -13 -109 -106 -124 -106 -9 0 -36 58 -36 78 0 22 36 58 65 65 11 3
21 5 23 6 1 0 18 -6 37 -13z m1932 -13 c24 -16 45 -35 48 -43 8 -25 -10 -75
-28 -78 -20 -4 -127 68 -127 86 0 13 44 62 56 62 4 0 27 -12 51 -27z m-1221
-38 c39 -25 20 -29 -81 -16 -109 15 -131 23 -90 33 52 12 140 3 171 -17z m592
9 c53 -15 18 -26 -118 -39 l-65 -6 28 25 c23 21 38 26 80 26 29 0 62 -3 75 -6z
m-1160 -44 c17 -11 32 -22 32 -24 0 -10 -176 -96 -195 -96 -24 0 -45 18 -45
37 0 7 26 33 58 58 64 51 98 57 150 25z m1726 -36 c31 -25 56 -51 56 -58 0
-19 -22 -36 -46 -36 -19 0 -194 86 -194 96 0 9 78 43 102 44 17 0 46 -16 82
-46z m-891 6 c14 -11 35 -39 46 -63 19 -40 21 -61 21 -248 0 -113 6 -255 12
-315 21 -181 17 -269 -13 -334 -32 -70 -85 -130 -112 -130 -25 0 -99 75 -129
132 -28 55 -30 155 -5 321 12 81 17 179 17 313 0 219 5 243 68 307 41 42 59
45 95 17z m-630 -42 c18 -9 6 -16 -99 -52 -65 -23 -129 -48 -141 -54 -31 -17
-57 -15 -77 7 -17 18 -16 20 16 44 44 33 89 55 135 67 44 11 136 4 166 -12z
m1412 -37 c47 -24 84 -49 82 -55 -2 -6 -15 -18 -30 -26 -24 -13 -30 -12 -79 9
-29 13 -95 37 -145 54 -51 17 -93 34 -93 37 0 15 61 29 117 27 51 -2 78 -11
148 -46z m-1986 -3 c16 -28 15 -32 -34 -113 -29 -47 -33 -116 -11 -170 29 -69
104 -135 213 -187 255 -123 539 -141 730 -47 45 23 87 38 93 34 15 -9 12 -82
-5 -114 -18 -36 -68 -56 -169 -70 -233 -33 -532 9 -726 101 -92 44 -189 143
-219 223 -30 78 -26 187 9 255 62 120 90 141 119 88z m2389 -32 c81 -127 90
-234 32 -352 -49 -100 -158 -183 -307 -235 -219 -75 -611 -90 -740 -28 -56 27
-87 92 -67 143 8 22 16 21 97 -19 97 -46 183 -65 297 -65 144 0 293 38 465
119 179 84 255 252 166 372 -17 24 -31 52 -31 64 0 22 26 65 40 65 4 0 26 -29
48 -64z m-1483 26 l100 -7 9 -47 c14 -70 -1 -94 -67 -113 -38 -11 -86 -15
-158 -13 -96 3 -102 4 -74 16 31 14 97 18 173 12 47 -5 67 9 77 51 4 17 0 33
-13 49 -26 32 -114 38 -236 16 -49 -8 -93 -13 -97 -10 -14 8 -10 31 8 50 15
14 29 16 98 9 44 -4 125 -10 180 -13z m784 -24 c9 -15 13 -29 10 -33 -4 -3
-48 1 -100 10 -134 21 -200 20 -233 -6 -29 -23 -33 -54 -11 -86 14 -21 23 -22
108 -21 63 2 101 -3 122 -12 29 -14 26 -15 -65 -18 -101 -3 -174 10 -202 35
-20 18 -26 117 -8 128 6 4 41 9 78 11 37 3 94 9 127 13 33 5 82 8 110 7 42 -1
51 -5 64 -28z m-1109 -8 c0 -24 -26 -49 -67 -66 -35 -15 -125 -18 -158 -5 -17
7 -14 11 25 31 61 31 172 68 188 63 6 -3 12 -13 12 -23z m1211 4 c67 -20 169
-64 169 -74 0 -23 -118 -27 -160 -5 -32 16 -70 61 -70 81 0 17 -5 17 61 -2z
m-857 -46 c15 -25 -5 -54 -35 -51 -78 7 -153 1 -214 -17 -79 -23 -163 -26
-189 -7 -15 11 -8 16 55 40 104 41 182 56 283 54 73 -2 91 -5 100 -19z m686
-3 c75 -16 210 -64 210 -75 0 -23 -119 -26 -186 -5 -93 29 -142 35 -195 24
-57 -12 -79 -2 -79 37 0 18 7 25 28 30 15 3 32 7 37 9 15 6 111 -5 185 -20z
m-1572 -20 c1 -13 -12 -32 -38 -53 -38 -31 -40 -32 -40 -11 0 32 39 91 59 87
9 -2 17 -12 19 -23z m2266 -16 c24 -29 35 -69 19 -69 -5 0 -26 15 -48 34 -34
29 -38 36 -26 50 19 22 25 20 55 -15z m-2195 -43 l22 -23 -68 -62 c-61 -57
-68 -61 -80 -45 -26 36 -16 70 33 113 26 23 52 41 59 41 6 0 22 -11 34 -24z
m2173 -35 c49 -49 49 -49 35 -83 -7 -18 -18 -33 -24 -33 -13 0 -133 113 -133
125 0 12 41 40 59 40 7 0 36 -22 63 -49z m-109 -48 c55 -47 100 -100 89 -106
-12 -8 -182 93 -182 108 0 13 26 34 41 35 4 0 27 -17 52 -37z m-1964 11 c2 -2
2 -6 0 -8 -13 -12 -174 -105 -177 -102 -6 7 25 60 45 78 40 37 108 53 132 32z
m96 -36 c14 -6 25 -14 25 -17 -1 -3 -49 -35 -107 -70 -101 -61 -108 -63 -132
-50 -46 26 -36 41 61 96 99 56 112 60 153 41z m1830 -51 c50 -29 90 -59 90
-67 0 -8 -12 -21 -26 -29 -24 -13 -30 -11 -122 43 -116 70 -128 82 -96 95 42
17 62 11 154 -42z m-1677 7 c28 -19 29 -63 2 -92 -78 -84 -210 -104 -289 -43
l-23 18 113 66 c119 70 156 80 197 51z m1559 -54 c56 -33 104 -64 107 -69 11
-17 -55 -54 -105 -59 -41 -4 -60 1 -112 26 -71 35 -92 55 -102 93 -5 20 -1 32
16 48 40 37 83 28 196 -39z m-1017 2 c0 -56 -16 -75 -95 -115 -94 -47 -183
-68 -282 -68 -121 0 -143 11 -79 40 74 32 195 68 258 75 56 7 108 35 108 60 0
27 32 56 61 56 28 0 29 -2 29 -48z m-405 29 c18 -7 18 -9 -10 -23 -56 -29 -75
-31 -75 -11 0 38 37 53 85 34z m746 -1 c10 -6 28 -28 39 -50 22 -43 27 -46
128 -60 62 -8 232 -63 282 -90 26 -14 -56 -23 -159 -17 -108 6 -204 33 -284
81 l-52 31 -3 58 c-3 61 6 70 49 47z m429 -19 c24 -46 12 -50 -57 -20 -41 18
-45 22 -28 29 36 15 74 11 85 -9z m-900 -1 c29 -18 -11 -39 -105 -55 -55 -10
-139 -36 -214 -66 -103 -42 -131 -49 -163 -44 -21 4 -38 10 -38 14 0 13 237
123 306 141 74 20 190 26 214 10z m770 -20 c63 -17 301 -131 294 -141 -2 -5
-20 -11 -39 -15 -27 -5 -57 3 -142 38 -122 51 -161 63 -251 77 -71 11 -98 27
-82 46 13 15 157 13 220 -5z m-1760 -82 c0 -16 -7 -43 -16 -61 -24 -45 -22
-123 3 -173 68 -129 302 -245 597 -295 154 -26 258 13 394 146 48 47 90 85 93
85 12 0 17 -53 8 -84 -5 -19 -37 -57 -80 -97 -60 -57 -70 -71 -67 -95 5 -46
46 -54 98 -20 23 15 44 25 47 22 3 -2 5 -43 5 -89 1 -122 -23 -169 -159 -310
-126 -130 -171 -191 -297 -400 -102 -169 -292 -443 -346 -497 -92 -93 -243
-106 -295 -27 -35 54 -83 324 -89 505 -3 70 -11 145 -19 167 -21 60 -28 134
-18 195 7 41 5 65 -5 95 -27 74 -29 173 -5 242 25 74 26 115 5 174 -22 63 -20
181 4 249 11 30 23 87 26 125 5 50 17 91 42 145 l36 75 19 -24 c10 -13 19 -36
19 -53z m2613 -45 c75 -245 82 -304 60 -470 -16 -120 -16 -122 5 -178 24 -63
27 -103 11 -155 -6 -19 -14 -109 -19 -200 -6 -100 -15 -185 -25 -215 -10 -30
-18 -100 -20 -174 -5 -133 -46 -395 -70 -440 -8 -16 -29 -41 -47 -56 -30 -25
-38 -27 -95 -22 -68 5 -129 34 -174 84 -53 57 -326 462 -399 593 -66 118 -89
148 -196 259 -202 211 -224 252 -224 410 l1 86 37 -42 c48 -54 95 -73 122 -48
11 10 20 26 20 35 0 10 -38 55 -85 102 -75 74 -85 89 -85 120 0 20 6 41 14 47
11 10 32 -6 107 -82 146 -146 223 -172 417 -143 258 39 516 173 575 298 23 49
21 101 -5 174 l-22 62 24 36 c14 20 28 36 31 36 3 0 22 -53 42 -117z m-2545
-18 c1 -11 -12 -44 -29 -74 -23 -40 -33 -50 -40 -40 -13 21 -11 54 7 99 13 32
21 40 38 38 12 -2 22 -11 24 -23z m2451 -11 c13 -30 15 -128 2 -120 -5 3 -23
31 -41 62 -29 53 -30 57 -15 74 20 23 39 17 54 -16z m-2399 -95 l24 -62 -29
-23 c-17 -13 -37 -24 -45 -24 -21 0 -40 20 -40 42 0 19 51 128 60 128 3 0 16
-28 30 -61z m71 36 c53 -27 54 -36 9 -60 -22 -11 -30 -12 -38 -2 -11 13 -33
87 -26 87 3 0 27 -11 55 -25z m2289 -55 c19 -41 21 -54 12 -75 -14 -30 -40
-32 -76 -4 -31 25 -32 43 -6 104 24 56 34 52 70 -25z m-100 39 c0 -49 -39 -76
-68 -47 -20 20 -13 38 21 53 43 19 47 18 47 -6z m-2056 -38 c5 -8 -87 -94
-151 -141 -32 -23 -33 -23 -53 -5 -11 10 -20 23 -20 29 1 6 40 37 88 69 81 53
124 69 136 48z m2019 -62 c48 -33 87 -64 87 -69 0 -5 -11 -17 -25 -26 -29 -19
-15 -27 -132 75 -40 35 -70 67 -67 72 13 21 55 5 137 -52z m-1262 12 c-16 -29
-106 -108 -147 -129 -23 -12 -78 -24 -136 -30 -62 -7 -119 -20 -160 -37 -124
-52 -184 -61 -195 -28 -5 14 220 124 324 159 47 16 94 24 137 24 61 0 67 2
111 40 37 32 50 38 61 29 9 -7 11 -17 5 -28z m-610 19 c40 -22 23 -48 -73
-110 -96 -62 -104 -63 -143 -20 -24 27 -17 40 54 98 44 36 59 42 97 42 25 0
54 -5 65 -10z m1067 -44 c26 -8 87 -22 136 -31 49 -9 116 -26 150 -39 75 -29
225 -103 248 -123 48 -42 -42 -44 -144 -4 -75 30 -179 54 -283 66 -58 7 -62 9
-132 80 -40 41 -73 81 -73 90 0 14 3 14 26 -4 14 -11 46 -27 72 -35z m657 15
c90 -52 105 -85 53 -124 l-26 -19 -76 41 c-87 49 -106 65 -106 92 0 45 85 50
155 10z m-1245 -1 c-8 -5 -42 -10 -76 -10 -85 0 -147 -21 -326 -111 -153 -77
-188 -88 -218 -69 -13 8 -10 14 15 39 68 68 203 129 332 151 71 12 291 12 273
0z m967 -24 c35 -9 91 -29 125 -44 63 -29 168 -105 168 -121 0 -5 -14 -12 -31
-16 -25 -6 -64 9 -234 89 -195 92 -206 96 -272 96 -37 0 -75 5 -83 11 -23 16
251 3 327 -15z m421 -94 c3 -10 -53 -52 -70 -52 -15 0 -8 17 17 44 25 27 45
30 53 8z m-1453 -62 c-31 -34 -120 -71 -183 -77 -72 -7 -143 4 -121 18 40 25
232 75 303 78 18 1 19 0 1 -19z m918 -19 c42 -11 91 -28 109 -37 l33 -17 -30
-9 c-72 -22 -223 16 -264 66 -12 14 -8 16 31 16 25 0 79 -9 121 -19z m-621
-66 c43 -40 67 -55 88 -55 23 0 39 12 76 55 26 30 51 55 55 55 3 0 3 -19 -2
-42 -4 -24 -8 -62 -9 -85 0 -53 -5 -55 -165 -51 l-120 3 3 27 c2 14 -2 45 -8
68 -12 43 -6 80 12 80 6 0 37 -25 70 -55z m329 4 c59 -52 76 -89 40 -89 -27 0
-69 37 -91 81 -38 74 -28 76 51 8z m-451 7 c0 -30 -51 -86 -79 -86 -34 0 -25
34 19 74 47 42 60 45 60 12z m210 -176 c0 -12 -8 -12 -35 0 -18 8 -17 9 8 9
15 1 27 -3 27 -9z m125 -40 c4 -6 9 -39 11 -75 6 -81 -1 -85 -131 -85 -135 0
-165 18 -165 96 0 67 4 69 149 72 79 1 132 -2 136 -8z m-307 -234 c-4 -107
-15 -127 -77 -147 -64 -21 -144 -65 -211 -117 -129 -101 -67 10 105 188 66 69
131 140 144 158 35 49 44 29 39 -82z m523 -71 c101 -106 179 -207 179 -231 0
-6 -36 12 -80 41 -44 29 -120 68 -168 86 l-88 33 -11 96 c-6 52 -8 111 -5 130
l5 35 31 -40 c17 -22 79 -89 137 -150z m-296 104 c-51 -10 -115 -10 -140 1
-13 6 16 8 80 8 79 0 92 -2 60 -9z m99 -45 c3 -9 6 -35 6 -60 0 -61 -25 -75
-143 -82 -148 -7 -199 27 -163 111 l15 36 83 4 c199 8 196 8 202 -9z m-344
-194 c0 -33 -18 -50 -91 -83 -118 -52 -285 -183 -416 -325 -29 -31 -54 -54
-57 -52 -7 8 117 190 173 254 84 94 160 153 266 206 107 53 125 53 125 0z
m215 20 c-25 -11 -82 -11 -115 0 -17 5 0 8 55 8 53 0 73 -2 60 -8z m257 -16
c91 -35 199 -106 276 -183 57 -58 187 -240 177 -249 -2 -3 -59 44 -125 104
-142 128 -237 195 -320 225 -68 25 -79 35 -90 83 -12 55 -9 55 82 20z m-114
-22 c7 -9 12 -43 12 -79 0 -79 2 -78 -185 -88 -178 -8 -182 -6 -165 83 16 82
31 92 135 93 44 0 98 4 120 8 46 8 65 5 83 -17z m-28 -202 c12 -7 11 -10 -5
-17 -28 -11 -193 -10 -230 2 -27 9 -24 10 35 15 106 10 184 10 200 0z m-376
-30 c20 -7 26 -17 26 -39 0 -16 -4 -32 -9 -35 -14 -9 -150 27 -155 41 -14 36
75 57 138 33z m597 0 c26 -14 24 -39 -4 -49 -50 -19 -119 -24 -128 -10 -15 25
-10 49 14 59 31 12 94 12 118 0z m-171 -48 c16 -37 13 -157 -5 -172 -12 -10
-56 -12 -183 -7 -172 5 -197 9 -205 32 -13 32 27 154 54 163 10 4 88 7 173 7
152 0 155 0 166 -23z m-187 -209 c124 -5 147 -8 133 -19 -34 -24 -147 -36
-232 -24 -43 6 -83 15 -88 20 -14 14 2 43 21 36 10 -4 84 -10 166 -13z m-260
-74 c17 -18 27 -40 27 -59 0 -17 -2 -30 -4 -30 -2 0 -33 16 -70 35 -37 19 -74
35 -82 35 -17 0 -18 24 -1 38 36 30 92 22 130 -19z m631 31 c48 -18 32 -42
-51 -80 -42 -19 -81 -37 -86 -39 -16 -6 0 70 20 91 32 36 72 45 117 28z m-173
-115 c3 -60 9 -118 14 -128 16 -37 -5 -42 -198 -42 -236 0 -224 -7 -221 147
l2 113 44 -2 c152 -8 236 -4 273 10 76 30 79 27 86 -98z m-1081 -13 c0 -52
-51 -96 -66 -57 -6 14 42 83 59 84 4 1 7 -11 7 -27z m1829 -41 c28 -35 29 -40
15 -52 -14 -11 -19 -10 -35 10 -11 13 -19 29 -19 36 0 7 -3 20 -6 29 -11 29
14 16 45 -23z m-3154 -145 c17 -12 18 -18 7 -52 -6 -22 -13 -100 -16 -174 -7
-160 -20 -213 -85 -351 -48 -100 -299 -832 -340 -990 -31 -120 -51 -270 -60
-449 l-9 -165 -41 -86 c-37 -79 -44 -87 -75 -93 -48 -9 -118 9 -140 36 -25 32
-17 81 35 198 67 153 142 368 214 610 90 304 175 572 285 895 110 326 123 377
108 454 -21 117 49 217 117 167z m2160 1 c50 2 113 5 141 8 41 5 55 2 75 -14
13 -10 20 -23 16 -28 -11 -10 -266 -17 -323 -8 -49 7 -80 27 -70 44 6 8 18 10
39 4 18 -4 73 -7 122 -6z m2366 -29 c18 -29 20 -44 15 -120 -7 -112 -4 -122
187 -703 173 -525 202 -617 281 -891 37 -130 76 -238 121 -337 36 -80 69 -162
72 -181 12 -74 -55 -118 -146 -96 -47 11 -48 12 -80 84 -53 121 -61 159 -61
295 0 237 -31 372 -191 841 -150 438 -204 584 -243 655 -43 80 -44 83 -48 285
l-3 174 25 13 c38 19 48 16 71 -19z m-4304 -10 c18 -5 42 -21 53 -35 53 -68
31 -180 -76 -389 -90 -174 -117 -254 -179 -529 -88 -391 -199 -773 -315 -1085
-32 -85 -68 -186 -81 -224 -26 -75 -55 -106 -100 -106 -40 0 -72 34 -65 68 4
15 30 74 60 132 151 294 214 491 341 1055 154 686 157 704 159 917 1 140 4
170 17 184 32 31 108 36 186 12z m4177 -30 c3 -13 7 -97 10 -188 5 -180 15
-248 81 -540 24 -107 67 -298 95 -425 103 -469 181 -704 329 -989 72 -141 68
-196 -13 -196 -50 0 -73 36 -145 232 -128 344 -212 629 -346 1168 -84 344 -85
344 -164 510 -97 199 -109 233 -117 320 -6 60 -4 70 15 89 16 16 34 21 79 22
31 1 71 5 87 9 59 15 84 12 89 -12z m-2463 -14 c22 -20 26 -74 5 -74 -7 0 -42
11 -77 24 -46 17 -64 29 -64 42 0 36 99 41 136 8z m287 9 c157 -5 173 -7 183
-24 5 -11 8 -32 6 -47 -2 -15 2 -52 10 -82 17 -68 9 -90 -44 -116 -54 -26
-249 -32 -326 -10 -74 21 -81 32 -68 98 7 34 8 75 3 114 -11 79 -7 88 32 79
17 -3 109 -9 204 -12z m387 -17 c0 -14 -18 -26 -74 -47 -41 -16 -78 -26 -82
-23 -5 3 -9 21 -9 40 0 43 22 54 105 51 51 -2 60 -5 60 -21z m-190 -302 c0
-26 -4 -29 -45 -37 -64 -13 -329 -12 -363 2 -31 12 -45 37 -29 53 7 7 30 5 76
-7 79 -21 250 -17 306 8 45 20 55 17 55 -19z m-206 -74 c53 2 121 3 151 4 l55
1 9 -104 c11 -141 22 -135 -208 -127 -232 9 -276 26 -255 100 5 17 9 47 9 68
0 67 5 71 78 63 36 -4 109 -6 161 -5z m-285 -26 c18 -17 21 -69 6 -79 -12 -7
-93 29 -110 49 -29 36 70 64 104 30z m651 -13 c0 -18 -12 -30 -52 -53 -29 -16
-57 -27 -63 -23 -5 3 -10 21 -10 40 0 44 31 67 85 63 35 -3 40 -6 40 -27z
m1948 -151 c141 -381 294 -847 331 -1010 29 -126 48 -410 27 -410 -13 0 -123
285 -164 425 -52 174 -90 330 -167 685 -38 173 -76 344 -84 380 -19 80 -20 88
-3 70 8 -8 35 -71 60 -140z m-4563 116 c0 -8 -13 -72 -29 -143 -17 -70 -53
-236 -81 -368 -93 -435 -178 -740 -267 -952 l-37 -87 -9 34 c-25 93 16 375 88
612 37 124 211 627 277 806 39 102 58 135 58 98z m1235 -146 c28 -11 29 -13
12 -24 -9 -8 -63 -17 -120 -21 -144 -10 -198 -35 -216 -101 -14 -53 4 -101 64
-163 85 -90 108 -153 120 -326 6 -77 15 -111 65 -240 61 -157 93 -254 104
-317 l7 -38 -45 0 c-54 0 -76 19 -76 65 0 23 -10 45 -34 73 l-33 41 -6 143
c-3 79 -10 168 -17 198 -18 83 -82 207 -144 280 -31 36 -64 81 -73 100 -62
124 46 296 212 341 39 11 142 4 180 -11z m2225 -4 c95 -40 158 -114 180 -211
17 -75 7 -102 -71 -195 -76 -92 -129 -190 -155 -285 -9 -35 -18 -122 -21 -209
-6 -146 -6 -149 -34 -181 -17 -19 -29 -44 -29 -60 0 -41 -47 -82 -104 -90 -61
-10 -91 -35 -170 -148 -35 -51 -76 -103 -90 -116 -14 -14 -26 -32 -26 -42 0
-25 40 -69 99 -109 28 -19 51 -38 51 -41 0 -3 -15 -12 -32 -20 -45 -20 -75
-69 -84 -137 -16 -136 -82 -231 -198 -286 -51 -24 -69 -28 -126 -24 -58 3 -75
9 -121 40 -122 82 -214 199 -244 311 -21 77 -19 277 3 299 9 9 57 13 170 14
86 1 186 7 222 13 184 34 335 108 464 230 74 71 86 95 95 191 7 64 15 88 45
138 51 82 74 163 91 318 16 158 33 203 108 282 30 31 59 67 66 79 29 56 1 141
-56 168 -22 11 -79 21 -142 25 -153 12 -179 27 -93 55 55 17 149 14 202 -9z
m-1413 -12 c41 -12 112 -17 248 -20 l190 -3 3 -24 c5 -41 -20 -54 -129 -67
-80 -10 -120 -10 -188 -1 -182 26 -209 40 -196 102 4 16 8 29 10 29 2 0 30 -7
62 -16z m-502 -49 c60 -29 84 -54 155 -158 53 -78 53 -79 37 -107 -10 -16 -17
-49 -17 -77 0 -73 -16 -95 -82 -116 -37 -12 -59 -25 -63 -37 -13 -42 47 -225
125 -380 22 -44 40 -87 40 -95 0 -22 -22 -28 -63 -17 -49 14 -61 3 -55 -51 12
-108 114 -243 223 -296 69 -33 78 -41 65 -57 -8 -8 -20 -10 -38 -4 -15 4 -63
13 -107 20 -151 23 -295 94 -411 202 -81 76 -87 87 -94 173 -6 71 -10 80 -70
188 -41 74 -57 135 -69 270 -17 177 -33 219 -118 308 -29 31 -57 69 -62 85
-11 39 5 91 32 109 13 8 90 26 172 39 83 14 161 27 175 30 58 11 175 -4 225
-29z m1683 6 c32 -13 78 -21 142 -23 101 -4 131 -15 149 -55 23 -51 5 -113
-45 -152 -80 -63 -118 -159 -133 -338 -13 -145 -18 -162 -76 -269 -36 -66 -49
-102 -56 -157 -14 -101 -23 -120 -98 -188 -113 -105 -244 -170 -404 -203 -86
-18 -167 -21 -167 -6 0 5 29 24 65 41 127 62 217 171 244 296 12 59 -2 77 -49
63 -49 -14 -77 -12 -83 5 -4 8 20 69 53 137 65 138 113 281 108 324 -2 24 -13
34 -56 55 -29 14 -59 32 -67 40 -7 8 -18 56 -25 108 -9 81 -9 96 5 115 125
172 160 200 260 215 106 15 183 13 233 -8z m-1301 -46 c21 -15 43 -98 29 -112
-9 -9 -76 46 -88 73 -8 17 -8 27 2 39 16 19 30 19 57 0z m691 -16 c2 -21 -7
-35 -44 -68 -26 -22 -51 -41 -55 -41 -17 0 -10 96 9 112 41 36 86 35 90 -3z
m-528 -25 c56 -12 115 -15 230 -12 l155 3 3 -94 c3 -109 -5 -128 -71 -163 -37
-20 -56 -23 -162 -23 -109 0 -125 2 -178 27 -66 31 -79 54 -76 132 1 28 -1 72
-6 99 -9 56 -10 55 105 31z m-192 -216 c32 -15 53 -36 80 -78 44 -72 94 -105
179 -120 134 -23 228 13 330 126 55 62 75 77 117 89 27 8 55 15 62 15 25 0 44
-32 44 -74 0 -85 14 -105 103 -140 33 -13 37 -19 37 -49 0 -19 -12 -69 -26
-111 -34 -101 -321 -748 -337 -758 -7 -5 -53 -5 -103 -2 -85 6 -93 5 -113 -15
-16 -16 -21 -33 -21 -73 0 -29 -5 -60 -10 -68 -7 -11 -10 -2 -10 31 0 73 -11
109 -37 126 -22 14 -34 15 -103 4 -59 -10 -83 -10 -99 -2 -48 26 -355 700
-385 846 -9 41 12 66 59 74 49 8 74 41 81 111 4 30 13 66 21 78 13 21 20 23
51 17 21 -3 56 -16 80 -27z m207 -86 c92 -32 209 -28 303 10 34 14 62 22 62
18 0 -20 -46 -61 -93 -84 -66 -32 -155 -42 -233 -26 -48 10 -67 20 -101 55
-45 44 -57 73 -25 59 9 -4 49 -18 87 -32z m-364 -648 c22 -11 39 -34 60 -82
17 -36 45 -91 64 -123 19 -31 35 -62 35 -68 0 -36 -101 18 -164 89 -42 46 -71
104 -81 163 -7 36 -7 37 24 37 18 0 46 -7 62 -16z m1077 -12 c8 -58 -90 -198
-177 -254 -45 -28 -91 -37 -91 -18 0 9 58 121 139 270 9 17 52 29 96 27 23 -2
31 -7 33 -25z m-1509 -169 c14 -11 56 -62 93 -113 37 -51 79 -105 93 -120 16
-16 23 -33 20 -43 -4 -8 -39 -38 -80 -66 -117 -81 -147 -123 -186 -261 -27
-92 -25 -105 21 -149 l40 -38 -26 -74 c-19 -54 -27 -102 -31 -179 -5 -119 1
-157 91 -565 52 -238 76 -355 231 -1115 70 -341 102 -455 192 -685 59 -149 91
-202 233 -385 103 -132 103 -133 70 -283 -26 -120 -57 -179 -101 -194 -64 -23
-169 3 -169 42 0 33 34 124 74 200 41 77 43 94 17 150 -64 142 -324 231 -443
152 -37 -25 -83 -103 -91 -155 -14 -82 30 -199 108 -290 51 -60 55 -80 23
-109 -41 -37 -73 -47 -135 -44 -33 2 -90 57 -121 115 -23 45 -26 63 -27 151 0
95 2 104 37 181 94 203 93 261 -6 849 -86 507 -137 847 -196 1310 -53 415 -88
551 -185 717 -43 74 -67 102 -155 183 -70 65 -85 109 -85 250 1 145 20 221 66
260 17 14 36 25 42 25 7 1 58 5 115 9 130 11 147 23 155 113 7 75 33 106 132
155 79 39 136 41 184 6z m2068 -14 c73 -35 101 -73 110 -150 4 -31 14 -61 28
-77 19 -22 32 -26 131 -34 165 -14 178 -23 210 -139 22 -80 24 -248 5 -304 -9
-27 -42 -67 -96 -120 -96 -95 -133 -148 -185 -258 -56 -119 -76 -207 -121
-537 -106 -783 -183 -1289 -245 -1615 -60 -316 -52 -453 36 -646 33 -70 40
-97 40 -146 0 -94 -34 -189 -85 -240 -37 -38 -48 -43 -88 -43 -54 0 -94 13
-124 42 -32 30 -29 43 22 100 102 113 142 273 93 368 -13 26 -41 58 -66 75
-40 28 -50 30 -130 30 -146 0 -245 -49 -302 -147 -38 -68 -38 -103 4 -180 18
-35 44 -93 57 -131 l23 -68 -22 -22 c-19 -18 -34 -22 -91 -22 -80 0 -102 14
-132 83 -18 40 -59 220 -59 255 0 9 21 46 46 82 49 73 51 95 4 50 -39 -38 -70
-102 -70 -148 0 -78 54 -266 91 -318 l21 -31 -26 -51 c-39 -78 -36 -130 13
-198 113 -159 132 -276 132 -799 0 -304 -8 -507 -31 -845 -9 -137 -24 -387
-55 -930 -30 -543 -60 -674 -191 -848 -25 -34 -52 -74 -60 -89 -8 -16 -19 -26
-23 -24 -16 10 -119 172 -154 241 -79 159 -90 249 -142 1130 -78 1344 -82
1615 -30 1928 16 94 34 138 98 231 52 77 58 124 23 189 -32 59 -32 68 -2 115
29 44 40 80 70 213 l23 100 -23 47 c-12 26 -45 74 -74 107 -113 131 -207 294
-279 485 -55 147 -106 361 -215 900 -52 256 -131 636 -176 845 -99 455 -104
523 -56 663 32 94 30 115 -15 166 -38 43 -38 68 -2 170 33 93 64 124 109 109
42 -14 62 -50 80 -142 27 -146 87 -231 200 -287 79 -39 175 -41 249 -5 64 32
201 168 247 246 29 51 38 60 63 60 25 0 34 -9 63 -60 45 -77 182 -214 247
-245 76 -38 170 -35 253 8 118 61 172 139 199 286 12 65 22 92 40 111 30 29
87 43 107 26 17 -14 58 -116 77 -189 l13 -52 -37 -38 c-45 -46 -47 -72 -12
-176 20 -58 25 -95 25 -168 0 -97 0 -98 -109 -603 -33 -154 -110 -524 -171
-823 -116 -570 -135 -643 -232 -890 -60 -154 -103 -230 -178 -315 -68 -77 -40
-75 32 2 84 91 138 198 212 423 72 218 114 380 171 668 61 311 128 634 214
1030 38 179 75 363 81 410 15 105 6 203 -26 294 -13 38 -24 75 -24 82 0 6 18
30 40 53 22 22 40 47 40 55 0 23 -41 149 -62 191 -34 65 -60 94 -118 132 -65
43 -110 82 -110 98 0 6 14 27 31 46 17 19 49 60 71 92 113 165 164 185 305
116z m-1948 -52 c20 -25 167 -87 262 -111 140 -35 271 -47 380 -34 87 11 91
11 112 -10 20 -20 22 -32 21 -135 0 -137 -24 -224 -85 -317 -45 -67 -147 -158
-214 -190 -59 -29 -142 -27 -208 5 -117 55 -168 124 -196 264 -20 100 -38 135
-82 159 -16 10 -29 19 -29 22 0 3 20 18 44 33 52 33 103 83 112 109 4 13 -10
36 -48 77 -54 60 -106 141 -90 141 5 0 15 -6 21 -13z m-2048 -367 c31 -17 22
-44 -34 -107 -29 -32 -63 -74 -76 -91 -12 -18 -31 -32 -41 -32 -22 0 -45 38
-55 91 -8 46 11 69 95 114 71 38 82 40 111 25z m5849 -25 c37 -19 76 -45 84
-57 24 -34 20 -82 -10 -117 -33 -40 -59 -40 -80 2 -9 17 -41 58 -70 89 -56 59
-66 90 -36 107 26 16 37 14 112 -24z m-2991 -47 c-14 -27 -17 -20 -11 32 5 43
5 44 13 16 5 -17 4 -37 -2 -48z m-2696 11 c9 -12 17 -29 17 -39 0 -39 -62 -60
-109 -36 -26 14 -31 23 -31 51 0 22 6 38 18 45 25 15 84 4 105 -21z m5518 21
c24 -13 25 -57 2 -82 -19 -21 -92 -25 -111 -6 -48 48 44 122 109 88z m-5645
-213 c-1 -124 -6 -133 -65 -103 -41 22 -45 32 -27 71 9 18 13 40 10 49 -11 30
6 87 29 95 48 18 53 8 53 -112z m5728 107 c11 -10 16 -34 16 -68 0 -38 6 -61
20 -79 l20 -25 -31 -26 c-17 -15 -43 -26 -59 -26 l-29 0 2 113 c1 61 7 115 12
119 16 12 32 9 49 -8z m294 -22 l22 -14 -32 -17 c-17 -9 -39 -31 -47 -48 -20
-41 -26 -41 -40 -2 -17 48 -14 66 15 88 26 20 41 19 82 -7z m-6283 -2 c16 -18
17 -25 6 -60 -14 -46 -23 -50 -39 -16 -6 14 -24 33 -39 42 -15 10 -30 19 -32
21 -3 2 4 10 15 18 27 21 68 18 89 -5z m390 -28 c-3 -21 -1 -50 4 -65 13 -33
-3 -36 -23 -4 -27 41 -31 79 -11 94 30 21 37 15 30 -25z m5429 16 c23 -33 20
-54 -14 -90 l-30 -33 11 33 c6 18 9 50 7 72 -4 45 4 50 26 18z m-5334 -8 c25
-25 25 -45 0 -70 -30 -30 -70 -10 -70 37 0 22 24 53 41 53 5 0 18 -9 29 -20z
m5274 4 c32 -31 14 -84 -29 -84 -43 0 -60 47 -28 82 20 22 37 23 57 2z m141
-109 c-8 -91 -17 -102 -59 -70 -21 16 -20 21 16 127 21 61 23 65 36 47 10 -15
12 -40 7 -104z m-5577 89 c1 -14 11 -46 22 -71 25 -57 25 -79 1 -93 -40 -21
-47 -13 -58 67 -12 79 -5 123 20 123 7 0 14 -12 15 -26z m-390 -42 c22 -29 9
-56 -43 -87 -27 -16 -73 -54 -102 -83 -39 -41 -56 -52 -71 -48 -31 10 -55 42
-47 65 6 19 149 146 190 169 24 13 55 6 73 -16z m6392 18 c15 0 187 -148 194
-166 8 -21 -17 -60 -45 -69 -16 -5 -31 4 -72 47 -29 29 -74 67 -102 83 -59 35
-71 72 -33 99 13 9 29 14 36 11 8 -3 18 -5 22 -5z m-6176 -18 c3 -5 -8 -28
-25 -50 -26 -35 -34 -40 -50 -32 -23 13 -42 47 -34 60 3 6 19 10 35 10 16 0
32 5 35 10 8 12 32 13 39 2z m5978 -8 c30 -9 31 -37 2 -61 -15 -12 -32 -19
-36 -17 -10 6 -58 80 -58 89 0 6 55 -1 92 -11z m-6088 -85 c33 -26 33 -51 -3
-135 -29 -69 -72 -203 -91 -281 -12 -47 -41 -64 -79 -43 -30 16 -27 65 8 131
35 65 56 136 71 244 7 44 17 86 22 93 15 18 42 15 72 -9z m6186 2 c5 -11 14
-52 20 -93 14 -99 35 -169 76 -251 37 -73 38 -99 2 -118 -36 -20 -66 -3 -79
44 -35 129 -54 190 -85 265 -40 96 -41 110 -13 146 24 31 64 34 79 7z m-149
-37 c10 -12 16 -59 19 -153 5 -125 8 -140 33 -185 43 -77 32 -126 -28 -126
-51 0 -65 27 -65 125 0 83 -14 156 -46 237 -15 38 -16 51 -6 73 19 40 70 56
93 29z m-5891 -4 c31 -16 32 -53 4 -126 -21 -54 -28 -95 -33 -186 -7 -128 -16
-150 -65 -150 -61 0 -71 44 -28 131 24 51 27 68 30 186 2 72 9 136 14 143 12
14 52 16 78 2z m238 -26 c12 -8 22 -25 22 -37 0 -48 28 -128 69 -195 50 -83
52 -121 8 -136 -39 -14 -53 5 -72 99 -20 99 -55 174 -95 203 -36 27 -39 59 -7
72 33 13 50 12 75 -6z m5426 0 c23 -22 20 -30 -18 -65 -44 -40 -70 -94 -90
-192 -19 -91 -30 -117 -54 -117 -26 1 -52 25 -52 50 0 12 20 59 45 105 28 52
49 105 55 141 5 31 17 65 26 75 21 23 67 25 88 3z m-5544 -50 c16 -36 20 -68
20 -143 0 -55 7 -122 16 -156 l15 -60 -27 -23 c-19 -17 -36 -22 -63 -20 l-36
3 -3 95 c-5 148 7 318 25 335 23 23 31 18 53 -31z m5626 38 c21 -13 33 -85 33
-192 -1 -58 2 -126 6 -153 12 -78 -34 -120 -95 -87 -34 18 -39 41 -24 105 7
33 14 104 14 157 0 79 4 105 21 138 22 41 26 45 45 32z m-6268 -48 c33 -23 27
-46 -25 -84 -28 -20 -58 -55 -73 -83 -15 -27 -32 -47 -42 -47 -17 0 -48 25
-48 39 0 4 23 34 51 66 27 32 58 69 67 84 28 45 38 48 70 25z m6908 8 c6 -4
24 -27 41 -52 17 -25 45 -58 62 -74 32 -31 40 -63 19 -84 -23 -23 -45 -12 -70
36 -14 28 -43 61 -71 82 -52 39 -58 61 -25 84 25 18 29 19 44 8z m-567 -247
c-1 -67 -2 -68 -10 -25 -11 67 -11 129 1 110 5 -8 9 -46 9 -85z m-6529 4 c0
-15 -71 -89 -85 -89 -38 0 -12 60 39 91 29 18 46 17 46 -2z m7305 -16 c35 -38
42 -57 27 -67 -13 -8 -95 80 -88 93 12 19 26 13 61 -26z m-6228 -94 c8 -8 9
-19 2 -37 -6 -14 -9 -63 -8 -108 2 -90 -3 -104 -32 -104 -25 0 -26 4 -32 137
-5 99 -4 112 11 116 31 8 48 7 59 -4z m5152 2 c12 -8 12 -21 4 -78 -6 -37 -8
-89 -6 -115 4 -40 2 -47 -17 -53 -38 -12 -47 8 -42 87 2 40 0 89 -6 110 -7 25
-7 39 1 47 13 13 47 14 66 2z m679 -13 c5 -7 14 -48 20 -91 6 -48 20 -97 37
-128 25 -49 25 -52 9 -70 -9 -10 -28 -19 -40 -19 -26 0 -30 10 -37 94 -3 30
-19 76 -41 118 -20 38 -36 71 -36 74 0 5 59 33 71 34 4 0 11 -6 17 -12z
m-6517 -8 c25 -14 24 -28 -8 -86 -15 -27 -35 -85 -44 -129 -17 -86 -33 -101
-73 -72 -19 14 -19 16 7 74 14 32 31 92 38 133 6 41 13 78 16 83 6 10 41 9 64
-3z m245 -54 c3 -8 -7 -38 -23 -67 -25 -49 -28 -64 -28 -156 -1 -109 -7 -127
-45 -121 -39 5 -47 32 -23 75 29 53 35 101 23 177 -14 86 -4 106 51 106 25 0
42 -5 45 -14z m6045 4 c17 -10 19 -21 16 -113 -2 -91 1 -109 22 -155 27 -57
19 -82 -24 -82 -36 0 -48 24 -42 80 10 81 -10 168 -61 262 -8 16 62 22 89 8z
m-202 -17 c3 -2 0 -30 -7 -61 -16 -78 -15 -145 3 -188 8 -19 12 -41 9 -49 -9
-23 -43 -28 -70 -11 -22 15 -23 21 -17 59 15 79 9 169 -15 220 l-21 48 57 -7
c31 -3 59 -8 61 -11z m-5421 -272 c3 -65 1 -72 -15 -69 -14 3 -19 15 -21 62
-3 66 2 90 21 84 8 -3 13 -30 15 -77z m5160 45 c2 -17 1 -49 -3 -73 -5 -34
-10 -43 -26 -43 -17 0 -19 7 -19 68 0 38 3 72 7 76 15 15 38 -1 41 -28z
m-5942 -40 c5 -12 -8 -68 -38 -163 -5 -19 -16 -33 -25 -33 -17 0 -16 5 11 100
9 30 16 67 16 83 0 29 26 39 36 13z m6724 -21 c0 -19 10 -64 21 -100 12 -36
19 -69 15 -73 -10 -9 -46 36 -46 58 0 9 -8 41 -18 71 -21 61 -19 79 9 79 15 0
19 -7 19 -35z m-6198 -60 c10 -4 13 -31 13 -108 -1 -101 -1 -102 -25 -102 -24
0 -25 2 -31 100 -3 55 -4 103 -2 108 5 8 25 9 45 2z m5675 -97 c1 -99 -7 -125
-38 -113 -11 4 -14 29 -12 108 0 56 2 103 2 105 1 2 11 2 24 0 21 -3 22 -8 24
-100z m-5932 65 c-4 -10 -11 -47 -16 -83 -14 -102 -20 -120 -35 -120 -17 0
-18 33 -4 116 18 101 19 104 41 104 16 0 19 -4 14 -17z m6196 -38 c3 -27 10
-76 14 -107 7 -50 6 -58 -8 -58 -18 0 -22 13 -37 110 -5 36 -12 76 -16 88 -6
21 -4 23 17 20 21 -3 25 -10 30 -53z m-541 -9 c0 -40 -8 -66 -21 -66 -10 0
-12 83 -2 93 15 15 23 5 23 -27z m-5402 -238 c-4 -74 -22 -84 -26 -14 -4 54 2
76 18 76 7 0 10 -23 8 -62z m5670 -6 c2 -49 0 -62 -12 -62 -10 0 -15 16 -18
58 -5 63 -2 75 15 69 7 -2 13 -30 15 -65z m291 -14 l-1 -63 -13 54 c-14 55
-12 71 6 71 5 0 9 -28 8 -62z m-6267 -29 c-8 -28 -11 -31 -17 -16 -4 10 -2 37
6 60 12 38 14 39 17 16 2 -15 -1 -42 -6 -60z m2581 -1705 c65 -23 115 -61 148
-111 37 -59 37 -92 0 -157 -16 -28 -39 -78 -52 -111 -30 -81 -53 -111 -95
-125 -117 -39 -261 92 -310 280 -30 119 17 214 121 241 39 10 135 2 188 -17z
m1269 16 c46 -13 93 -52 115 -94 53 -102 -26 -304 -155 -397 -88 -63 -187 -40
-227 53 -10 24 -33 76 -51 116 -41 89 -49 128 -34 167 31 83 160 153 300 164
8 0 32 -4 52 -9z m-1285 -550 c26 -6 96 -14 155 -19 125 -9 151 -22 180 -88
24 -55 20 -75 -36 -157 -88 -128 -111 -229 -127 -553 -13 -256 -7 -492 21
-938 10 -165 21 -354 25 -420 8 -161 33 -592 45 -790 27 -414 67 -577 184
-731 62 -83 86 -138 86 -201 0 -52 -17 -83 -44 -83 -7 0 -30 25 -49 55 -60 89
-113 103 -218 55 -67 -30 -124 -27 -160 9 -36 36 -38 74 -5 121 44 66 59 127
59 235 -1 55 -42 507 -92 1005 -49 498 -97 1000 -106 1115 -36 495 -80 673
-211 870 -116 175 -168 307 -150 380 9 34 69 60 159 69 80 8 110 18 149 51 32
27 61 30 135 15z m1249 -17 c53 -38 90 -53 131 -53 65 0 139 -19 159 -41 13
-15 18 -35 18 -74 -1 -66 -53 -180 -136 -302 -146 -213 -181 -353 -228 -900
-28 -324 -91 -960 -154 -1568 -33 -316 -48 -586 -36 -658 6 -36 22 -79 46
-117 41 -66 41 -94 -1 -136 -31 -31 -89 -32 -170 -4 -99 34 -118 30 -188 -45
-34 -36 -67 -65 -73 -65 -23 0 -36 31 -37 87 0 65 6 80 71 167 58 78 115 199
142 301 22 85 45 265 55 430 3 55 14 251 25 435 72 1231 82 1468 70 1700 -10
187 -30 364 -50 444 -6 22 -36 78 -67 124 -64 93 -73 142 -37 202 30 52 75 70
174 71 47 0 108 7 135 14 62 17 118 12 151 -12z m303 -399 c12 -15 21 -33 21
-41 0 -7 -16 -54 -35 -104 -66 -167 -84 -274 -110 -644 -29 -411 -71 -795
-160 -1445 -54 -398 -115 -955 -115 -1053 0 -39 5 -123 11 -186 12 -135 8
-161 -26 -161 -20 0 -30 10 -50 50 -30 59 -31 95 -5 135 28 43 25 93 -9 147
-16 25 -32 58 -35 74 -4 16 7 98 23 189 51 277 96 628 190 1485 74 670 91 853
102 1080 5 124 14 239 18 257 5 18 34 69 64 115 29 46 59 93 66 106 15 29 25
28 50 -4z m-244 -694 c-59 -748 -220 -2115 -265 -2265 -17 -54 3 181 95 1115
36 360 76 790 90 955 28 325 33 367 67 489 l23 81 3 -85 c2 -47 -4 -177 -13
-290z m-1474 221 c21 -80 29 -160 84 -771 20 -217 54 -566 75 -775 80 -766 99
-977 84 -962 -19 19 -143 964 -204 1562 -41 399 -91 999 -89 1065 1 23 2 22
16 -10 8 -19 24 -68 34 -109z m518 -2995 c64 -34 151 -164 151 -229 0 -49 -39
-46 -97 10 -77 71 -177 71 -326 -2 -43 -21 -60 -26 -69 -17 -29 29 48 154 115
189 42 21 157 61 180 62 10 1 30 -5 46 -13z m577 -27 c102 -48 194 -156 176
-206 -6 -18 -26 -16 -64 6 -53 31 -203 73 -233 65 -15 -4 -58 -30 -97 -60 -39
-29 -76 -50 -84 -47 -22 8 -17 78 10 131 27 52 98 126 136 141 34 13 84 4 156
-30z m-554 -221 c41 -21 87 -49 103 -64 l28 -26 -6 -114 c-8 -140 -27 -192
-80 -217 -61 -29 -117 -20 -117 18 0 17 13 30 53 53 91 51 110 135 55 235 -43
77 -152 125 -260 113 -32 -3 -58 -4 -58 -1 0 2 17 14 38 25 59 32 150 24 244
-22z m579 21 c54 -18 54 -27 0 -21 -71 6 -177 -27 -218 -70 -40 -41 -63 -95
-63 -149 0 -63 23 -101 85 -138 30 -18 55 -39 55 -45 0 -39 -75 -48 -127 -16
-54 33 -67 70 -71 208 l-4 123 44 43 c26 24 64 49 93 58 59 20 158 23 206 7z
m-741 -48 c0 -5 -7 -22 -15 -37 -8 -16 -15 -48 -15 -71 0 -38 -3 -43 -22 -43
-13 0 -44 14 -71 30 -47 30 -47 30 -33 59 13 25 43 45 96 64 24 9 60 8 60 -2z
m808 -31 c60 -43 55 -59 -32 -109 -52 -30 -66 -22 -66 34 0 25 -7 59 -15 75
l-16 30 44 0 c33 0 54 -8 85 -30z m-986 14 c5 -5 -17 -72 -27 -82 -8 -9 -45
21 -45 35 0 34 52 68 72 47z m1098 -14 c25 -25 25 -39 3 -56 -26 -19 -31 -17
-48 17 -28 53 3 81 45 39z m-777 -17 c11 -10 26 -32 33 -50 19 -43 18 -134 -1
-159 -14 -18 -14 -18 -15 9 0 63 -62 127 -123 127 -15 0 -30 7 -33 15 -10 25
5 65 29 75 30 13 85 5 110 -17z m502 17 c27 -10 48 -50 39 -74 -3 -7 -24 -16
-46 -19 -53 -7 -85 -40 -108 -108 l-17 -54 -12 40 c-15 54 -14 89 4 132 33 77
80 106 140 83z m-887 -92 c29 -29 -1 -123 -48 -148 -25 -13 -112 -9 -117 6 -2
6 7 22 20 35 12 14 40 46 61 72 39 47 62 57 84 35z m1270 -57 c81 -91 80 -111
-3 -111 -26 0 -43 9 -70 35 -30 31 -35 42 -35 84 0 85 26 83 108 -8z m-1132
18 c60 -37 56 -61 -22 -140 l-68 -69 -23 22 c-12 12 -25 29 -28 39 -12 35 62
169 92 169 9 0 31 -9 49 -21z m1003 -58 c22 -76 23 -80 6 -115 -10 -20 -19
-36 -21 -36 -2 0 -33 29 -69 65 -54 53 -66 70 -63 92 4 32 58 73 97 73 24 0
28 -7 50 -79z m-811 53 c25 -17 52 -64 52 -90 0 -9 -18 -34 -39 -55 -28 -26
-42 -50 -46 -76 -11 -68 -15 -83 -24 -83 -5 0 -11 14 -15 32 -9 45 -52 87 -98
94 -21 4 -38 7 -38 9 0 1 18 20 39 43 21 22 44 58 51 79 7 21 19 44 28 51 22
17 63 15 90 -4z m600 0 c12 -8 22 -23 22 -32 0 -22 30 -71 63 -102 15 -14 27
-28 27 -31 0 -4 -16 -10 -37 -14 -45 -8 -93 -54 -93 -89 0 -16 -6 -26 -15 -26
-9 0 -15 9 -15 24 0 41 -22 90 -56 126 -20 21 -34 46 -34 60 1 74 82 123 138
84z m-1050 -156 c-8 -22 -66 -50 -95 -46 -26 4 -24 6 27 31 63 30 73 32 68 15z
m1502 -29 l35 -18 -37 -1 c-26 0 -45 8 -65 25 l-28 25 30 -6 c17 -4 46 -15 65
-25z m-1396 2 c24 -26 14 -53 -32 -85 -45 -31 -52 -32 -52 -8 0 10 -7 27 -15
38 -20 27 -19 29 18 53 40 26 59 26 81 2z m1278 -6 l37 -25 -22 -35 c-12 -19
-26 -34 -30 -35 -14 0 -87 63 -87 76 0 14 38 44 55 44 6 0 27 -11 47 -25z
m-1075 -25 c32 -19 48 -52 41 -86 -2 -12 -17 -21 -43 -26 -22 -5 -52 -21 -67
-35 -23 -22 -28 -23 -28 -10 0 10 -18 37 -41 62 l-40 44 41 26 c78 49 93 52
137 25z m918 -19 c28 -14 52 -27 54 -28 2 -2 -15 -23 -38 -48 -22 -24 -41 -54
-41 -66 0 -19 -4 -18 -40 15 -22 20 -50 36 -63 36 -48 0 -61 40 -26 84 41 52
67 53 154 7z m-1238 -28 c8 -21 -30 -53 -63 -53 -32 0 -41 26 -19 50 22 25 73
27 82 3z m1513 -3 c25 -25 25 -37 2 -49 -25 -13 -82 12 -82 37 0 10 3 22 7 25
13 14 54 6 73 -13z m-1715 -57 c-18 -16 -31 -21 -33 -14 -6 18 18 41 42 41 19
-1 19 -3 -9 -27z m365 -10 c25 -31 23 -56 -5 -61 -11 -2 -37 -17 -57 -33 -48
-38 -103 -40 -120 -5 -16 36 -6 49 64 89 76 44 90 45 118 10z m1193 6 c101
-51 124 -91 72 -125 -29 -19 -51 -13 -100 26 -21 17 -46 30 -55 30 -26 0 -31
24 -12 51 30 45 38 47 95 18z m-1473 -12 c0 -17 -57 -50 -75 -43 -19 7 -9 31
18 44 31 15 57 14 57 -1z m1721 -3 c34 -17 33 -40 -2 -36 -27 3 -61 31 -53 43
8 13 21 11 55 -7z"/>
<path d="M5964 17486 c-203 -64 -283 -344 -121 -428 97 -50 234 -14 322 84
163 182 27 415 -201 344z"/>
<path d="M6660 17483 c-101 -38 -140 -168 -84 -280 80 -161 307 -227 403 -118
104 119 23 341 -143 390 -49 15 -146 19 -176 8z"/>
<path d="M6364 17236 c-27 -12 -36 -27 -64 -102 -45 -124 -57 -208 -37 -256
21 -50 58 -72 122 -72 87 0 145 57 145 144 0 40 -45 201 -72 256 -8 17 -49 46
-61 44 -1 -1 -16 -7 -33 -14z"/>
<path d="M5061 13499 c-20 -57 -13 -110 23 -184 65 -135 165 -231 320 -306
149 -73 337 -91 419 -40 40 24 87 107 87 153 0 41 -30 54 -160 73 -303 43
-481 120 -618 271 l-60 65 -11 -32z m76 -81 c28 -26 30 -59 3 -83 -25 -23 -47
-7 -56 41 -12 63 11 82 53 42z m88 -72 c18 -13 18 -16 5 -41 -32 -60 -99 -73
-85 -17 6 26 41 72 55 72 3 0 15 -6 25 -14z m79 -52 c26 -10 19 -27 -28 -73
-29 -29 -50 -42 -60 -38 -33 13 -29 38 10 78 38 39 49 44 78 33z m130 -61 c9
-10 -115 -133 -135 -133 -9 0 -24 9 -35 21 -17 19 -17 23 -3 47 23 41 76 72
124 72 23 0 45 -3 49 -7z m106 -33 c8 -5 12 -10 10 -12 -61 -46 -140 -114
-144 -124 -8 -20 -55 -18 -63 2 -4 12 13 36 59 80 67 65 100 78 138 54z m118
-16 c12 -4 22 -9 22 -13 0 -3 -24 -18 -53 -34 -29 -15 -76 -48 -105 -73 -51
-44 -90 -55 -99 -28 -5 14 119 120 162 140 34 15 42 16 73 8z m207 -49 c0 -14
-9 -21 -35 -26 -52 -11 -124 -44 -184 -84 -35 -23 -65 -35 -87 -35 -56 0 -63
12 -26 47 93 87 177 124 272 120 52 -2 60 -5 60 -22z m-5 -68 c0 -56 -64 -98
-147 -96 -87 1 -91 10 -21 51 55 31 138 66 161 68 4 0 7 -10 7 -23z"/>
<path d="M6063 13098 c-153 -180 -163 -198 -110 -198 45 0 238 237 223 275
-11 30 -36 13 -113 -77z"/>
<path d="M5065 13138 c-26 -74 -24 -143 6 -200 22 -43 98 -129 158 -180 134
-114 282 -154 402 -109 65 25 92 50 92 87 0 45 -32 63 -159 95 -202 49 -346
138 -449 278 -32 43 -43 49 -50 29z m52 -74 c16 -25 16 -28 -2 -61 -18 -32
-20 -33 -32 -17 -7 10 -13 34 -13 54 0 57 19 66 47 24z m66 -126 c-20 -35 -51
-48 -63 -28 -11 17 6 72 27 88 14 10 20 9 36 -7 20 -19 20 -20 0 -53z m80 -20
c15 -23 -36 -90 -66 -86 -33 5 -34 48 -2 82 27 29 52 31 68 4z m77 -43 c11
-13 8 -23 -16 -58 -32 -45 -56 -56 -79 -37 -13 10 -12 16 1 42 32 62 69 83 94
53z m87 -40 c7 -19 -62 -125 -81 -125 -20 0 -38 27 -32 47 8 26 75 93 92 93 8
0 17 -7 21 -15z m136 -31 c96 -20 124 -32 130 -53 13 -52 -62 -90 -176 -91
-93 0 -117 10 -117 49 0 27 61 111 81 111 6 0 42 -7 82 -16z"/>
<path d="M5054 12775 c-18 -46 60 -222 134 -306 112 -124 325 -179 364 -93 18
39 -10 67 -99 98 -138 49 -242 128 -334 252 -46 62 -57 71 -65 49z m126 -165
c8 -14 7 -26 -1 -42 l-12 -22 -18 23 c-20 24 -24 43 -12 54 12 13 32 7 43 -13z
m68 -96 c-12 -27 -45 -32 -54 -9 -4 8 1 27 11 41 16 24 18 25 35 9 15 -14 17
-21 8 -41z m79 -15 c6 -6 51 -25 99 -43 79 -28 89 -34 92 -57 3 -24 -1 -27
-40 -33 -51 -8 -117 10 -183 48 -47 28 -53 43 -33 76 14 22 48 26 65 9z"/>
<path d="M5090 12393 c0 -114 71 -227 174 -278 101 -49 171 -32 164 40 -3 25
-18 40 -93 92 -49 34 -122 90 -162 123 -40 33 -75 60 -78 60 -3 0 -5 -17 -5
-37z m128 -96 c6 -7 47 -38 92 -67 85 -58 104 -85 75 -107 -49 -35 -225 65
-225 128 0 24 21 59 36 59 6 0 16 -6 22 -13z"/>
<path d="M5122 12090 c5 -44 11 -59 37 -82 53 -48 121 -31 107 27 -4 15 -27
38 -63 61 -87 56 -87 56 -81 -6z m81 -26 c40 -27 46 -56 15 -62 -21 -4 -68 44
-68 69 0 25 8 24 53 -7z"/>
<path d="M7669 13474 c-62 -65 -180 -154 -250 -190 -83 -41 -222 -77 -384 -99
-75 -11 -127 -23 -137 -32 -43 -39 3 -162 73 -199 49 -25 258 -15 353 17 137
46 259 142 343 271 68 105 87 179 63 242 -13 34 -20 33 -61 -10z m35 -60 c8
-20 -11 -91 -26 -100 -13 -8 -48 31 -48 54 0 19 39 62 56 62 6 0 15 -7 18 -16z
m-76 -104 c41 -61 9 -92 -47 -45 -35 30 -40 59 -13 74 24 14 34 10 60 -29z
m-66 -60 c41 -41 44 -56 15 -74 -13 -9 -26 -1 -67 39 -38 37 -47 52 -38 62 19
23 49 14 90 -27z m-81 -43 c36 -24 60 -62 53 -82 -3 -7 -17 -18 -31 -26 -24
-13 -27 -11 -74 41 -77 85 -78 90 -26 90 29 0 55 -8 78 -23z m-93 -71 c57 -56
64 -66 53 -80 -21 -26 -41 -19 -95 32 -28 26 -64 57 -79 69 -35 27 -28 43 20
43 30 0 45 -10 101 -64z m-195 35 c25 -10 170 -126 175 -141 2 -5 -6 -13 -17
-19 -16 -9 -28 -3 -78 39 -32 27 -82 62 -110 77 -56 30 -63 39 -35 46 29 8 40
7 65 -2z m-62 -57 c70 -33 155 -106 144 -123 -14 -24 -78 -11 -139 28 -65 42
-154 81 -186 81 -23 0 -34 15 -26 37 11 27 128 14 207 -23z m-101 -70 c81 -38
113 -62 104 -75 -9 -15 -113 -10 -144 6 -54 28 -89 105 -48 105 8 0 47 -16 88
-36z"/>
<path d="M6614 13166 c-10 -25 53 -120 137 -208 69 -73 78 -79 97 -69 12 7 22
16 22 21 0 17 -215 265 -233 268 -9 2 -20 -4 -23 -12z m136 -149 c19 -21 28
-35 19 -32 -9 3 -25 18 -36 33 -23 32 -40 62 -27 47 5 -5 25 -27 44 -48z"/>
<path d="M7651 13075 c-111 -135 -246 -215 -421 -250 -116 -23 -144 -37 -159
-74 -12 -27 -11 -34 4 -57 36 -55 157 -85 258 -64 99 20 173 65 273 166 115
116 138 161 132 253 -8 112 -15 114 -87 26z m63 -11 c9 -25 6 -57 -8 -82 l-13
-24 -16 26 c-21 31 -21 46 -1 74 18 26 30 28 38 6z m-55 -100 c28 -62 -5 -98
-46 -50 -27 32 -30 61 -6 74 23 13 38 6 52 -24z m-64 -65 c29 -35 29 -56 2
-73 -32 -19 -97 71 -70 97 15 15 43 5 68 -24z m-76 -54 c36 -41 40 -70 12 -85
-11 -5 -22 -10 -24 -10 -13 0 -68 102 -63 115 9 26 43 17 75 -20z m-111 -13
c24 -16 62 -76 62 -99 0 -28 -24 -40 -46 -22 -26 21 -66 98 -60 114 6 16 24
19 44 7z m-71 -54 c34 -37 63 -78 63 -91 0 -17 -72 -37 -137 -37 -71 0 -136
22 -162 54 -11 13 -11 22 -3 40 9 20 26 28 94 44 110 27 109 27 145 -10z"/>
<path d="M7660 12706 c-98 -124 -195 -196 -320 -237 -74 -24 -110 -52 -110
-85 0 -35 36 -54 105 -54 148 0 315 141 374 318 22 64 27 122 12 122 -5 0 -32
-29 -61 -64z m-16 -138 c-12 -24 -18 -27 -30 -17 -19 15 -18 38 3 61 16 18 18
18 30 2 10 -13 9 -22 -3 -46z m-54 -59 c0 -39 -36 -41 -51 -2 -8 22 -7 30 7
40 24 17 44 -1 44 -38z m-62 -34 c17 -37 7 -49 -65 -86 -52 -26 -78 -33 -124
-34 -64 0 -84 12 -74 44 4 15 25 26 73 41 37 11 87 31 112 44 50 27 63 25 78
-9z"/>
<path d="M7620 12363 c-36 -30 -107 -84 -158 -120 -101 -71 -121 -97 -103
-132 32 -59 175 -28 253 56 42 45 72 112 76 174 2 31 3 62 1 67 -2 6 -33 -15
-69 -45z m-6 -85 c9 -12 16 -30 16 -39 0 -29 -93 -104 -152 -123 -53 -17 -53
-17 -71 5 -10 12 -16 27 -14 33 4 11 186 145 199 146 4 0 14 -10 22 -22z"/>
<path d="M7585 12087 c-70 -50 -83 -85 -41 -112 22 -15 27 -15 55 0 41 21 62
55 69 110 6 57 -4 58 -83 2z m50 -29 c-8 -28 -53 -70 -69 -65 -22 7 -10 42 23
64 43 29 54 29 46 1z"/>
<path d="M6742 9619 c-54 -27 -110 -92 -118 -137 -8 -42 8 -91 48 -150 46 -67
109 -96 162 -76 19 7 100 120 111 154 21 66 -9 142 -77 193 -49 37 -76 41
-126 16z m87 -23 c36 -19 89 -79 97 -111 9 -36 0 -63 -46 -133 -50 -78 -76
-92 -122 -65 -49 28 -108 118 -108 163 0 44 44 111 93 140 38 24 49 24 86 6z"/>
<path d="M6628 10485 c-15 -8 -29 -24 -33 -34 -9 -29 -72 -81 -98 -81 -13 0
-32 -7 -43 -15 -18 -13 -16 -14 21 -15 51 0 97 28 130 80 20 32 31 40 56 40
40 0 65 -14 116 -63 24 -22 45 -38 48 -35 11 11 -43 74 -85 99 -60 37 -80 41
-112 24z"/>
<path d="M6083 10474 c-36 -18 -103 -87 -103 -106 0 -7 15 2 33 18 96 90 131
96 177 32 37 -51 82 -78 130 -77 l35 0 -37 14 c-58 21 -87 45 -114 91 -22 37
-31 44 -57 44 -18 0 -47 -8 -64 -16z"/>
<path d="M6125 10256 c-27 -12 -76 -56 -63 -56 3 0 31 12 62 26 34 15 64 23
76 19 29 -9 37 -53 16 -88 -23 -40 -10 -49 20 -14 67 78 -11 157 -111 113z"/>
<path d="M6556 10248 c-30 -42 -13 -103 35 -129 19 -10 18 -6 -6 35 -21 36
-24 49 -15 65 18 35 58 38 113 7 27 -15 51 -25 54 -22 19 19 -71 66 -126 66
-30 0 -44 -6 -55 -22z"/>
<path d="M6598 10053 c-8 -10 -18 -31 -22 -48 -7 -30 -7 -30 31 12 21 23 45
44 53 46 8 3 1 6 -16 6 -18 1 -37 -6 -46 -16z"/>
<path d="M5940 9629 c-32 -13 -88 -66 -106 -101 -19 -36 -18 -102 2 -144 21
-44 99 -131 124 -139 27 -9 69 16 119 70 85 93 95 194 24 241 -34 22 -37 14
-13 -37 27 -60 26 -117 -3 -157 -28 -37 -94 -92 -112 -92 -27 0 -81 48 -102
90 -41 80 -26 159 41 218 42 36 52 38 103 17 42 -18 43 -18 43 -5 0 28 -81 55
-120 39z"/>
</g>
</svg>
